<svg width="14" height="13" viewBox="0 0 14 13" fill="none" xmlns="http://www.w3.org/2000/svg">
<path d="M8.66016 2.40234C8.96094 2.10156 11.832 0.296875 12.4609 0.925781C13.1172 1.58203 11.3125 4.45312 11.0117 4.75391C10.7109 5.05469 9.94531 4.78125 9.28906 4.125C8.63281 3.46875 8.35938 2.70312 8.66016 2.40234ZM3.35547 1.63672C2.50781 2.15625 1.79688 2.89453 1.27734 3.76953C0.703125 2.78516 0.0742188 1.33594 0.511719 0.898438C0.976562 0.433594 2.37109 1.0625 3.35547 1.63672ZM11.4766 4.50781C11.5859 4.37109 11.668 4.20703 11.7773 4.01562C12.2695 4.86328 12.543 5.84766 12.543 6.88672C12.543 10.168 9.89062 12.793 6.63672 12.793C3.38281 12.793 0.757812 10.1406 0.757812 6.88672C0.757812 3.63281 3.38281 1.00781 6.63672 1.00781C7.62109 1.00781 8.55078 1.25391 9.37109 1.66406C9.15234 1.77344 8.98828 1.88281 8.82422 1.99219C8.11328 1.85547 7.92188 2.42969 8.41406 3.30469C9.01562 4.50781 10.8477 5.79297 11.4219 5.24609C11.5586 5.08203 11.5859 4.83594 11.4766 4.50781Z" fill="#424242"/>
</svg>
