<svg width="166" height="95" viewBox="0 0 166 95" fill="none" xmlns="http://www.w3.org/2000/svg">
<path d="M71.5787 4.94531H15.9667C12.6832 4.94531 10.0215 7.59633 10.0215 10.8665V88.3562C10.0215 91.6264 12.6832 94.2774 15.9667 94.2774H71.5787C74.8622 94.2774 77.5239 91.6264 77.5239 88.3562V10.8665C77.5239 7.59633 74.8622 4.94531 71.5787 4.94531Z" fill="#CBEDE1"/>
<path d="M65.7719 1H6.93389C3.65669 1 1 3.646 1 6.91001V82.5233C1 85.7873 3.65669 88.4333 6.93389 88.4333H65.7719C69.0491 88.4333 71.7058 85.7873 71.7058 82.5233V6.91001C71.7058 3.646 69.0491 1 65.7719 1Z" fill="white" stroke="#0B5243" stroke-width="0.603947" stroke-miterlimit="10"/>
<path d="M29.2399 7.11719H8.05458C6.78287 7.11719 5.75195 8.14396 5.75195 9.41054C5.75195 10.6771 6.78287 11.7039 8.05458 11.7039H29.2399C30.5116 11.7039 31.5425 10.6771 31.5425 9.41054C31.5425 8.14396 30.5116 7.11719 29.2399 7.11719Z" fill="#0B5243"/>
<path d="M63.5027 16.9609H9.20237C7.39275 16.9609 5.92578 18.422 5.92578 20.2243V77.9899C5.92578 79.7922 7.39275 81.2533 9.20237 81.2533H63.5027C65.3123 81.2533 66.7793 79.7922 66.7793 77.9899V20.2243C66.7793 18.422 65.3123 16.9609 63.5027 16.9609Z" fill="#CBEDE1"/>
<path d="M22.7756 58.4688H13.3905C12.1188 58.4688 11.0879 59.4955 11.0879 60.7621C11.0879 62.0287 12.1188 63.0555 13.3905 63.0555H22.7756C24.0473 63.0555 25.0782 62.0287 25.0782 60.7621C25.0782 59.4955 24.0473 58.4688 22.7756 58.4688Z" fill="#0B5243"/>
<path d="M52.6478 66.8516H12.2814C11.6223 66.8516 11.0879 67.3825 11.0879 68.0375C11.0879 68.6925 11.6223 69.2234 12.2814 69.2234H52.6478C53.3069 69.2234 53.8413 68.6925 53.8413 68.0375C53.8413 67.3825 53.3069 66.8516 52.6478 66.8516Z" fill="#83BAA0"/>
<path d="M52.6478 72.75H12.2814C11.6223 72.75 11.0879 73.281 11.0879 73.9359C11.0879 74.5909 11.6223 75.1219 12.2814 75.1219H52.6478C53.3069 75.1219 53.8413 74.5909 53.8413 73.9359C53.8413 73.281 53.3069 72.75 52.6478 72.75Z" fill="#83BAA0"/>
<path d="M55.8241 47.0677C55.8241 41.5502 50.9486 28.5078 43.8662 28.5078C37.358 28.5078 32.4431 39.9914 32.4431 39.9914C32.4431 39.9914 30.2137 34.5524 26.0588 34.5524C20.6091 34.5524 17.5352 43.4286 17.5352 47.0733H55.8241V47.0677Z" fill="#0CC79F"/>
<path d="M27.5844 30.3928C29.9071 30.3928 31.79 28.5175 31.79 26.2042C31.79 23.8909 29.9071 22.0156 27.5844 22.0156C25.2618 22.0156 23.3789 23.8909 23.3789 26.2042C23.3789 28.5175 25.2618 30.3928 27.5844 30.3928Z" fill="#FBF9ED"/>
<path d="M147.147 4.27344H92.6395C89.4214 4.27344 86.8125 6.87318 86.8125 10.0801V57.4223C86.8125 60.6292 89.4214 63.2289 92.6395 63.2289H147.147C150.365 63.2289 152.974 60.6292 152.974 57.4223V10.0801C152.974 6.87318 150.365 4.27344 147.147 4.27344Z" fill="#CBEDE1"/>
<path d="M141.241 1H83.481C80.2565 1 77.6426 3.58831 77.6426 6.78115V52.2092C77.6426 55.402 80.2565 57.9903 83.481 57.9903H141.241C144.465 57.9903 147.079 55.402 147.079 52.2092V6.78115C147.079 3.58831 144.465 1 141.241 1Z" fill="white" stroke="#0B5243" stroke-width="0.603947" stroke-miterlimit="10"/>
<path d="M139.284 17.375H86.0925C84.3198 17.375 82.8828 18.7827 82.8828 20.5192V45.0187C82.8828 46.7552 84.3198 48.1629 86.0925 48.1629H139.284C141.056 48.1629 142.493 46.7552 142.493 45.0187V20.5192C142.493 18.7827 141.056 17.375 139.284 17.375Z" fill="#CBEDE1"/>
<path d="M89.2245 31.5137C89.8738 31.5137 90.4002 30.9895 90.4002 30.3428C90.4002 29.6961 89.8738 29.1719 89.2245 29.1719C88.5752 29.1719 88.0488 29.6961 88.0488 30.3428C88.0488 30.9895 88.5752 31.5137 89.2245 31.5137Z" fill="#83BAA0"/>
<path d="M89.2245 37.0137C89.8738 37.0137 90.4002 36.4895 90.4002 35.8428C90.4002 35.1961 89.8738 34.6719 89.2245 34.6719C88.5752 34.6719 88.0488 35.1961 88.0488 35.8428C88.0488 36.4895 88.5752 37.0137 89.2245 37.0137Z" fill="#83BAA0"/>
<path d="M89.2245 42.2716C89.8738 42.2716 90.4002 41.7473 90.4002 41.1006C90.4002 40.4539 89.8738 39.9297 89.2245 39.9297C88.5752 39.9297 88.0488 40.4539 88.0488 41.1006C88.0488 41.7473 88.5752 42.2716 89.2245 42.2716Z" fill="#83BAA0"/>
<path d="M99.068 21.3047H90.2794C89.0885 21.3047 88.123 22.3312 88.123 23.5974C88.123 24.8636 89.0885 25.8901 90.2794 25.8901H99.068C100.259 25.8901 101.224 24.8636 101.224 23.5974C101.224 22.3312 100.259 21.3047 99.068 21.3047Z" fill="#0B5243"/>
<path d="M105.553 6.89844H85.1052C83.8778 6.89844 82.8828 7.92492 82.8828 9.19115C82.8828 10.4574 83.8778 11.4839 85.1052 11.4839H105.553C106.78 11.4839 107.775 10.4574 107.775 9.19115C107.775 7.92492 106.78 6.89844 105.553 6.89844Z" fill="#0B5243"/>
<path d="M136.729 29.1719H93.235C92.5831 29.1719 92.0547 29.7584 92.0547 30.482C92.0547 31.2056 92.5831 31.7921 93.235 31.7921H136.729C137.381 31.7921 137.909 31.2056 137.909 30.482C137.909 29.7584 137.381 29.1719 136.729 29.1719Z" fill="#83BAA0"/>
<path d="M120.371 34.4062H93.2165C92.5748 34.4062 92.0547 34.9928 92.0547 35.7164C92.0547 36.4399 92.5748 37.0265 93.2165 37.0265H120.371C121.012 37.0265 121.532 36.4399 121.532 35.7164C121.532 34.9928 121.012 34.4062 120.371 34.4062Z" fill="#83BAA0"/>
<path d="M96.6402 31.7921C97.3638 31.7921 97.9503 31.2056 97.9503 30.482C97.9503 29.7584 97.3638 29.1719 96.6402 29.1719C95.9166 29.1719 95.3301 29.7584 95.3301 30.482C95.3301 31.2056 95.9166 31.7921 96.6402 31.7921Z" fill="#83BAA0"/>
<path d="M96.6402 37.0265C97.3638 37.0265 97.9503 36.4399 97.9503 35.7164C97.9503 34.9928 97.3638 34.4062 96.6402 34.4062C95.9166 34.4062 95.3301 34.9928 95.3301 35.7164C95.3301 36.4399 95.9166 37.0265 96.6402 37.0265Z" fill="#83BAA0"/>
<path d="M120.371 39.6484H93.2165C92.5748 39.6484 92.0547 40.235 92.0547 40.9586C92.0547 41.6821 92.5748 42.2687 93.2165 42.2687H120.371C121.012 42.2687 121.532 41.6821 121.532 40.9586C121.532 40.235 121.012 39.6484 120.371 39.6484Z" fill="#83BAA0"/>
<path d="M96.6402 42.2687C97.3638 42.2687 97.9503 41.6821 97.9503 40.9586C97.9503 40.235 97.3638 39.6484 96.6402 39.6484C95.9166 39.6484 95.3301 40.235 95.3301 40.9586C95.3301 41.6821 95.9166 42.2687 96.6402 42.2687Z" fill="#83BAA0"/>
<path d="M148.616 80.9232C158.216 80.9232 165.999 73.1403 165.999 63.5397C165.999 53.9391 158.216 46.1562 148.616 46.1562C139.015 46.1562 131.232 53.9391 131.232 63.5397C131.232 73.1403 139.015 80.9232 148.616 80.9232Z" fill="#0B5243"/>
<path d="M146.042 80.9232C155.642 80.9232 163.425 73.1403 163.425 63.5397C163.425 53.9391 155.642 46.1562 146.042 46.1562C136.441 46.1562 128.658 53.9391 128.658 63.5397C128.658 73.1403 136.441 80.9232 146.042 80.9232Z" fill="#CBEDE1" stroke="#0B5243" stroke-width="0.447988" stroke-miterlimit="10"/>
<path d="M143.449 50.0156V60.0436H135.74V66.2373H143.449V76.4127H149.676V66.2373H158.918V60.0436H149.676V50.0156H143.449Z" fill="#0B5243" stroke="#0B5243" stroke-width="0.556034" stroke-linejoin="round"/>
<path d="M142.161 50.0156V60.0436H133.164V66.2373H142.161V76.4127H148.387V66.2373H157.63V60.0436H148.387V50.0156H142.161Z" fill="#FBF9ED" stroke="#0B5243" stroke-width="0.556034" stroke-linejoin="round"/>
</svg>
