<svg width="176" height="221" viewBox="0 0 176 221" fill="none" xmlns="http://www.w3.org/2000/svg">
<path d="M160.97 1H38.9991C30.6983 1 23.9692 7.73146 23.9692 16.0351V204.836C23.9692 213.14 30.6983 219.871 38.9991 219.871H160.97C169.271 219.871 176 213.14 176 204.836V16.0351C176 7.73146 169.271 1 160.97 1Z" fill="#0B5243"/>
<path d="M157.463 1H35.4923C27.1915 1 20.4624 7.73146 20.4624 16.0351V204.836C20.4624 213.14 27.1915 219.871 35.4923 219.871H157.463C165.764 219.871 172.493 213.14 172.493 204.836V16.0351C172.493 7.73146 165.764 1 157.463 1Z" fill="white" stroke="#0B5243" stroke-width="0.75" stroke-miterlimit="10"/>
<path d="M147.835 46.0469H40.1825C31.8817 46.0469 25.1526 52.7783 25.1526 61.082V105.913C25.1526 114.217 31.8817 120.948 40.1825 120.948H147.835C156.136 120.948 162.865 114.217 162.865 105.913V61.082C162.865 52.7783 156.136 46.0469 147.835 46.0469Z" fill="#CBEDE1"/>
<path d="M150.287 137.148H37.5331C29.2336 137.148 22.5032 143.881 22.5032 152.184V170.469C22.5032 178.772 29.2336 185.504 37.5331 185.504H45.0523C45.9268 185.504 46.7327 185.968 47.1614 186.722L52.1257 195.325C53.2488 197.272 56.0525 197.272 57.1671 195.325L62.1313 186.722C62.5686 185.968 63.3745 185.504 64.2405 185.504H150.27C158.569 185.504 165.3 178.772 165.3 170.469V152.184C165.3 143.881 158.569 137.148 150.27 137.148H150.287Z" fill="#CBEDE1"/>
<path d="M38.9905 1H160.97C169.261 1 176 7.73279 176 16.0351V24.1745H23.9692V16.0351C23.9692 7.73279 30.6997 1 38.9905 1Z" fill="#0B5243"/>
<path d="M35.4923 1H157.463C165.754 1 172.493 7.73279 172.493 16.0351V24.1745H20.4624V16.0351C20.4624 7.73279 27.1928 1 35.4923 1Z" fill="#CBEDE1" stroke="#0B5243" stroke-width="0.75" stroke-miterlimit="10"/>
<path d="M38.6218 17.8694C41.2545 17.8694 43.3888 15.7344 43.3888 13.1007C43.3888 10.4671 41.2545 8.33203 38.6218 8.33203C35.989 8.33203 33.8547 10.4671 33.8547 13.1007C33.8547 15.7344 35.989 17.8694 38.6218 17.8694Z" fill="#FBF9ED" stroke="#0B5243" stroke-width="0.75" stroke-miterlimit="10"/>
<path d="M52.9226 17.8694C55.5553 17.8694 57.6896 15.7344 57.6896 13.1007C57.6896 10.4671 55.5553 8.33203 52.9226 8.33203C50.2898 8.33203 48.1555 10.4671 48.1555 13.1007C48.1555 15.7344 50.2898 17.8694 52.9226 17.8694Z" fill="#FBF9ED" stroke="#0B5243" stroke-width="0.75" stroke-miterlimit="10"/>
<path d="M67.2243 17.8694C69.8571 17.8694 71.9913 15.7344 71.9913 13.1007C71.9913 10.4671 69.8571 8.33203 67.2243 8.33203C64.5916 8.33203 62.4573 10.4671 62.4573 13.1007C62.4573 15.7344 64.5916 17.8694 67.2243 17.8694Z" fill="#FBF9ED" stroke="#0B5243" stroke-width="0.75" stroke-miterlimit="10"/>
<path d="M138.001 39.4297H16.0299C7.72911 39.4297 1 46.1611 1 54.4648V99.2958C1 107.599 7.72911 114.331 16.0299 114.331H138.001C146.302 114.331 153.031 107.599 153.031 99.2958V54.4648C153.031 46.1611 146.302 39.4297 138.001 39.4297Z" fill="white" stroke="#0B5243" stroke-width="0.75" stroke-linecap="round" stroke-linejoin="round"/>
<path d="M133.251 73.0547H61.2053C60.012 73.0547 59.0447 74.0224 59.0447 75.216C59.0447 76.4097 60.012 77.3774 61.2053 77.3774H133.251C134.444 77.3774 135.412 76.4097 135.412 75.216C135.412 74.0224 134.444 73.0547 133.251 73.0547Z" fill="#83BAA0"/>
<path d="M113.686 83.918H61.2053C60.012 83.918 59.0447 84.8856 59.0447 86.0793C59.0447 87.273 60.012 88.2407 61.2053 88.2407H113.686C114.879 88.2407 115.846 87.273 115.846 86.0793C115.846 84.8856 114.879 83.918 113.686 83.918Z" fill="#83BAA0"/>
<path d="M119.181 94.8555H61.2053C60.012 94.8555 59.0447 95.8231 59.0447 97.0168C59.0447 98.2105 60.012 99.1782 61.2053 99.1782H119.181C120.375 99.1782 121.342 98.2105 121.342 97.0168C121.342 95.8231 120.375 94.8555 119.181 94.8555Z" fill="#83BAA0"/>
<path d="M30.9908 85.8998C40.0823 85.8998 47.4525 78.527 47.4525 69.4323C47.4525 60.3376 40.0823 52.9648 30.9908 52.9648C21.8992 52.9648 14.5291 60.3376 14.5291 69.4323C14.5291 78.527 21.8992 85.8998 30.9908 85.8998Z" fill="#CBEDE1"/>
<path d="M30.9913 85.9026C36.2899 85.9026 40.9884 83.3896 43.9978 79.5043C41.6314 74.7013 36.7015 71.3906 30.9913 71.3906C25.2812 71.3906 20.3512 74.7013 17.9849 79.5043C20.9943 83.3896 25.6927 85.9026 30.9913 85.9026Z" fill="#088F73"/>
<path d="M30.9912 69.4335C33.9554 69.4335 36.3584 67.0297 36.3584 64.0644C36.3584 61.0991 33.9554 58.6953 30.9912 58.6953C28.027 58.6953 25.624 61.0991 25.624 64.0644C25.624 67.0297 28.027 69.4335 30.9912 69.4335Z" fill="#088F73"/>
<path d="M65.6123 54.1741L66.9755 56.9444C67.0698 57.1331 67.2413 57.2618 67.447 57.2875L70.4993 57.7335C71.0138 57.8107 71.2195 58.4454 70.8508 58.8142L68.6388 60.9669C68.4931 61.1127 68.4245 61.3186 68.4588 61.5244L68.9818 64.5692C69.0675 65.0838 68.5273 65.4783 68.0644 65.2382L65.3293 63.7973C65.1493 63.7029 64.9264 63.7029 64.7377 63.7973L62.0027 65.2382C61.5397 65.4783 60.9996 65.0924 61.0853 64.5692L61.6083 61.5244C61.6426 61.3186 61.574 61.1127 61.4282 60.9669L59.2162 58.8142C58.839 58.4454 59.0447 57.8107 59.5677 57.7335L62.62 57.2875C62.8258 57.2618 63.0058 57.1245 63.0916 56.9444L64.4548 54.1741C64.6863 53.7024 65.355 53.7024 65.5865 54.1741H65.6123Z" fill="#B66DF1"/>
<path d="M80.102 54.1741L81.4652 56.9444C81.5596 57.1331 81.731 57.2618 81.9368 57.2875L84.9891 57.7335C85.5035 57.8107 85.7093 58.4454 85.3406 58.8142L83.1286 60.9669C82.9828 61.1127 82.9142 61.3186 82.9485 61.5244L83.4715 64.5692C83.5572 65.0838 83.0171 65.4783 82.5541 65.2382L79.8191 63.7973C79.639 63.7029 79.4161 63.7029 79.2275 63.7973L76.4924 65.2382C76.0294 65.4783 75.4893 65.0924 75.575 64.5692L76.098 61.5244C76.1323 61.3186 76.0637 61.1127 75.918 60.9669L73.7059 58.8142C73.3287 58.4454 73.5345 57.8107 74.0575 57.7335L77.1097 57.2875C77.3155 57.2618 77.4956 57.1245 77.5813 56.9444L78.9445 54.1741C79.176 53.7024 79.8448 53.7024 80.0763 54.1741H80.102Z" fill="#B66DF1"/>
<path d="M94.4804 54.1741L95.8437 56.9444C95.938 57.1331 96.1094 57.2618 96.3152 57.2875L99.3675 57.7335C99.8819 57.8107 100.088 58.4454 99.719 58.8142L97.507 60.9669C97.3612 61.1127 97.2926 61.3186 97.3269 61.5244L97.8499 64.5692C97.9357 65.0838 97.3955 65.4783 96.9325 65.2382L94.1975 63.7973C94.0174 63.7029 93.7945 63.7029 93.6059 63.7973L90.8708 65.2382C90.4079 65.4783 89.8677 65.0924 89.9535 64.5692L90.4765 61.5244C90.5108 61.3186 90.4422 61.1127 90.2964 60.9669L88.0844 58.8142C87.7071 58.4454 87.9129 57.8107 88.4359 57.7335L91.4882 57.2875C91.6939 57.2618 91.874 57.1245 91.9597 56.9444L93.323 54.1741C93.5544 53.7024 94.2232 53.7024 94.4547 54.1741H94.4804Z" fill="#B66DF1"/>
<path d="M109.124 54.1741L110.488 56.9444C110.582 57.1331 110.753 57.2618 110.959 57.2875L114.012 57.7335C114.526 57.8107 114.732 58.4454 114.363 58.8142L112.151 60.9669C112.005 61.1127 111.937 61.3186 111.971 61.5244L112.494 64.5692C112.58 65.0838 112.04 65.4783 111.577 65.2382L108.842 63.7973C108.661 63.7029 108.439 63.7029 108.25 63.7973L105.515 65.2382C105.052 65.4783 104.512 65.0924 104.597 64.5692L105.12 61.5244C105.155 61.3186 105.086 61.1127 104.94 60.9669L102.728 58.8142C102.351 58.4454 102.557 57.8107 103.08 57.7335L106.132 57.2875C106.338 57.2618 106.518 57.1245 106.604 56.9444L107.967 54.1741C108.198 53.7024 108.867 53.7024 109.099 54.1741H109.124Z" fill="#B66DF1"/>
<path d="M124.146 54.1741L125.509 56.9444C125.603 57.1331 125.775 57.2618 125.98 57.2875L129.033 57.7335C129.547 57.8107 129.753 58.4454 129.384 58.8142L127.172 60.9669C127.026 61.1127 126.958 61.3186 126.992 61.5244L127.515 64.5692C127.601 65.0838 127.061 65.4783 126.598 65.2382L123.863 63.7973C123.683 63.7029 123.46 63.7029 123.271 63.7973L120.536 65.2382C120.073 65.4783 119.533 65.0924 119.619 64.5692L120.142 61.5244C120.176 61.3186 120.107 61.1127 119.962 60.9669L117.75 58.8142C117.372 58.4454 117.578 57.8107 118.101 57.7335L121.153 57.2875C121.359 57.2618 121.539 57.1245 121.625 56.9444L122.988 54.1741C123.22 53.7024 123.888 53.7024 124.12 54.1741H124.146Z" fill="#B66DF1"/>
<path d="M43.9465 92.1641H18.0279C16.0912 92.1641 14.5212 93.7346 14.5212 95.672C14.5212 97.6093 16.0912 99.1799 18.0279 99.1799H43.9465C45.8832 99.1799 47.4532 97.6093 47.4532 95.672C47.4532 93.7346 45.8832 92.1641 43.9465 92.1641Z" fill="#0B5243"/>
<path d="M139.741 131.367H17.7613C9.46188 131.367 2.73145 138.1 2.73145 146.402V164.688C2.73145 172.99 9.46188 179.723 17.7613 179.723H34.506C35.3805 179.723 36.1864 180.186 36.6151 180.941L41.5793 189.544C42.7025 191.491 45.5062 191.491 46.6207 189.544L51.585 180.941C52.0222 180.186 52.8282 179.723 53.6941 179.723H139.724C148.023 179.723 154.754 172.99 154.754 164.688V146.402C154.754 138.1 148.023 131.367 139.724 131.367H139.741Z" fill="white" stroke="#0B5243" stroke-width="0.75" stroke-linecap="round" stroke-linejoin="round"/>
<path d="M57.6811 146.958L59.4216 150.492C59.5416 150.732 59.7646 150.895 60.0304 150.929L63.9229 151.495C64.583 151.59 64.8488 152.404 64.3687 152.868L61.5479 155.612C61.3593 155.801 61.2736 156.067 61.3164 156.324L61.9852 160.209C62.0966 160.87 61.4107 161.367 60.8191 161.058L57.3382 159.223C57.1067 159.103 56.8237 159.103 56.5923 159.223L53.1113 161.058C52.5197 161.367 51.8338 160.87 51.9453 160.209L52.614 156.324C52.6569 156.067 52.5711 155.792 52.3825 155.612L49.5617 152.868C49.0816 152.404 49.3474 151.59 50.0076 151.495L53.9001 150.929C54.1659 150.895 54.3888 150.723 54.5088 150.492L56.2493 146.958C56.5408 146.358 57.3982 146.358 57.6897 146.958H57.6811Z" fill="#B66DF1"/>
<path d="M76.1579 146.958L77.8984 150.492C78.0185 150.732 78.2414 150.895 78.5072 150.929L82.3997 151.495C83.0598 151.59 83.3256 152.404 82.8455 152.868L80.0247 155.612C79.8361 155.801 79.7504 156.067 79.7932 156.324L80.462 160.209C80.5734 160.87 79.8875 161.367 79.2959 161.058L75.815 159.223C75.5835 159.103 75.3006 159.103 75.0691 159.223L71.5881 161.058C70.9965 161.367 70.3106 160.87 70.4221 160.209L71.0908 156.324C71.1337 156.067 71.048 155.792 70.8593 155.612L68.0385 152.868C67.5584 152.404 67.8242 151.59 68.4844 151.495L72.3769 150.929C72.6427 150.895 72.8656 150.723 72.9856 150.492L74.7261 146.958C75.0176 146.358 75.875 146.358 76.1665 146.958H76.1579Z" fill="#B66DF1"/>
<path d="M94.4887 146.958L96.2292 150.492C96.3493 150.732 96.5722 150.895 96.838 150.929L100.73 151.495C101.391 151.59 101.656 152.404 101.176 152.868L98.3555 155.612C98.1669 155.801 98.0812 156.067 98.124 156.324L98.7928 160.209C98.9043 160.87 98.2184 161.367 97.6268 161.058L94.1458 159.223C93.9143 159.103 93.6314 159.103 93.3999 159.223L89.9189 161.058C89.3273 161.367 88.6414 160.87 88.7529 160.209L89.4216 156.324C89.4645 156.067 89.3788 155.792 89.1901 155.612L86.3694 152.868C85.8892 152.404 86.155 151.59 86.8152 151.495L90.7077 150.929C90.9735 150.895 91.1964 150.723 91.3164 150.492L93.0569 146.958C93.3484 146.358 94.2058 146.358 94.4973 146.958H94.4887Z" fill="#B66DF1"/>
<path d="M113.163 146.958L114.903 150.492C115.023 150.732 115.246 150.895 115.512 150.929L119.404 151.495C120.064 151.59 120.33 152.404 119.85 152.868L117.029 155.612C116.841 155.801 116.755 156.067 116.798 156.324L117.467 160.209C117.578 160.87 116.892 161.367 116.301 161.058L112.82 159.223C112.588 159.103 112.305 159.103 112.074 159.223L108.593 161.058C108.001 161.367 107.315 160.87 107.427 160.209L108.095 156.324C108.138 156.067 108.053 155.792 107.864 155.612L105.043 152.868C104.563 152.404 104.829 151.59 105.489 151.495L109.382 150.929C109.647 150.895 109.87 150.723 109.99 150.492L111.731 146.958C112.022 146.358 112.88 146.358 113.171 146.958H113.163Z" fill="#B66DF1"/>
<path d="M132.316 146.958L134.057 150.492C134.177 150.732 134.4 150.895 134.666 150.929L138.558 151.495C139.218 151.59 139.484 152.404 139.004 152.868L136.183 155.612C135.995 155.801 135.909 156.067 135.952 156.324L136.62 160.209C136.732 160.87 136.046 161.367 135.454 161.058L131.973 159.223C131.742 159.103 131.459 159.103 131.228 159.223L127.747 161.058C127.155 161.367 126.469 160.87 126.581 160.209L127.249 156.324C127.292 156.067 127.206 155.792 127.018 155.612L124.197 152.868C123.717 152.404 123.983 151.59 124.643 151.495L128.535 150.929C128.801 150.895 129.024 150.723 129.144 150.492L130.885 146.958C131.176 146.358 132.033 146.358 132.325 146.958H132.316Z" fill="#CBEDE1"/>
<path d="M28.2642 167.932C35.0355 167.932 40.5247 162.441 40.5247 155.667C40.5247 148.893 35.0355 143.402 28.2642 143.402C21.4929 143.402 16.0037 148.893 16.0037 155.667C16.0037 162.441 21.4929 167.932 28.2642 167.932Z" fill="#CBEDE1"/>
<path d="M28.2648 167.932C32.2088 167.932 35.7069 166.062 37.9532 163.172C36.1956 159.595 32.526 157.125 28.2648 157.125C24.0036 157.125 20.3426 159.595 18.5764 163.172C20.8228 166.062 24.3209 167.932 28.2648 167.932Z" fill="#088F73"/>
<path d="M28.2647 155.665C30.4713 155.665 32.2601 153.876 32.2601 151.669C32.2601 149.461 30.4713 147.672 28.2647 147.672C26.0581 147.672 24.2693 149.461 24.2693 151.669C24.2693 153.876 26.0581 155.665 28.2647 155.665Z" fill="#088F73"/>
</svg>
