<svg width="147" height="175" viewBox="0 0 147 175" fill="none" xmlns="http://www.w3.org/2000/svg">
<path d="M110.207 174.411C52.0815 175.426 1 172.381 1 172.381C9.47468 143.07 13.098 49.8284 11.7278 1H144.593C147.536 64.5449 145.547 129.054 141.548 143.08C137.549 157.107 127.166 173.406 110.207 174.421V174.411Z" fill="white" stroke="black" stroke-width="0.679688" stroke-miterlimit="10"/>
<path d="M110.207 174.411C110.207 174.411 120.986 166.414 121.412 145.902C127.857 147.465 136.311 145.658 141.548 143.07C141.548 143.07 138.869 155.371 131.399 162.831C123.929 170.291 117.829 174.3 110.207 174.411Z" fill="black" stroke="black" stroke-width="0.679688" stroke-linecap="round" stroke-linejoin="round"/>
<path d="M84.9854 77.2098H25.3379C26.7994 59.9154 27.3272 39.7284 26.6167 17.207H85.6045C85.6045 17.207 86.9341 59.6515 84.9753 77.2098H84.9854Z" fill="#C1C1C1"/>
<path d="M128.414 135.325C113.87 137.192 93.4297 136.614 93.4297 136.614C95.0231 119.583 96.5557 102.644 96.6064 87.2981C96.6064 87.2981 110.085 88.0695 131.337 86.8516C131.703 102.563 130.383 123.978 128.414 135.325Z" fill="#C1C1C1"/>
<path d="M122.963 26.8589C119.523 27.0821 102.137 27.4272 99.5994 27.0821C96.5952 26.7371 94.1797 24.8493 94.1797 22.1293C94.1797 19.4093 96.1994 17.1764 99.5994 17.1764C102.999 17.1764 115.493 17.1764 122.963 16.9531C126.333 16.7907 128.383 19.186 128.383 21.906C128.383 24.626 126.404 26.6356 122.963 26.8589Z" fill="black"/>
<path d="M50.0824 94.5978C47.0275 94.7297 31.6005 94.7297 29.3473 94.4049C26.6882 94.0802 24.5772 92.507 24.6178 90.2945C24.6584 88.0819 26.4852 86.3058 29.4996 86.3565C32.5139 86.4073 43.597 86.6103 50.2346 86.5494C53.2287 86.4783 55.0048 88.4473 54.9642 90.6598C54.9236 92.8724 53.1373 94.4658 50.0824 94.5978Z" fill="black"/>
<path d="M130.088 40.2345C122.76 41.0668 105.121 41.4017 101.853 41.4017C98.5848 41.4017 97.7932 41.4525 95.946 41.4017C94.9108 41.4017 94.0684 40.4274 94.0684 39.2298C94.0684 38.0321 94.9108 37.0578 95.946 37.0578C95.946 37.0578 97.3263 37.0578 101.853 37.0578C116.366 37.0578 130.088 35.8906 130.088 35.8906C131.124 35.8906 131.966 36.865 131.966 38.0626C131.966 39.2602 131.124 40.2345 130.088 40.2345Z" fill="#C1C1C1"/>
<path d="M129.815 52.851C122.487 53.6832 104.848 54.0181 101.579 54.0181C98.3114 54.0181 97.5197 54.0689 95.6725 54.0181C94.6373 54.0181 93.7949 53.0438 93.7949 51.8563C93.7949 50.6689 94.6373 49.6945 95.6725 49.6945C95.6725 49.6945 97.0529 49.6945 101.579 49.6945C116.093 49.6945 129.815 48.5273 129.815 48.5273C130.85 48.5273 131.692 49.5017 131.692 50.6891C131.692 51.8766 130.85 52.851 129.815 52.851Z" fill="#C1C1C1"/>
<path d="M82.4895 109.983C75.1719 110.602 57.6135 110.358 54.3658 110.247C51.118 110.135 50.3263 110.166 48.4893 110.044C47.4642 110.013 46.6523 108.968 46.6929 107.73C46.7335 106.491 47.6063 105.507 48.6415 105.537C48.6415 105.537 50.0117 105.588 54.518 105.74C68.9503 106.228 82.6418 105.477 82.6418 105.477C83.6668 105.507 84.4788 106.552 84.4382 107.791C84.3976 109.029 83.5247 110.013 82.4895 109.983Z" fill="#C1C1C1"/>
<path d="M81.6672 124.541C74.3496 125.161 56.7913 124.917 53.5435 124.805C50.2957 124.694 49.5041 124.724 47.667 124.602C46.6419 124.572 45.83 123.527 45.8706 122.288C45.9112 121.05 46.784 120.066 47.8193 120.096C47.8193 120.096 49.1894 120.147 53.6957 120.299C68.1281 120.786 81.8195 120.035 81.8195 120.035C82.8446 120.066 83.6565 121.111 83.6159 122.349C83.5753 123.587 82.7025 124.572 81.6672 124.541Z" fill="#C1C1C1"/>
<path d="M80.4083 140.989C68.2799 141.446 39.1107 140.816 33.7113 140.634C28.3118 140.451 27.0127 140.461 23.9476 140.309C22.2425 140.248 20.8724 139.193 20.913 137.954C20.9536 136.716 22.3846 135.752 24.0999 135.803C24.0999 135.803 26.3835 135.884 33.8635 136.127C57.8464 136.939 80.5605 136.483 80.5605 136.483C82.2758 136.544 83.6358 137.599 83.5952 138.837C83.5546 140.076 82.1235 141.04 80.4083 140.989Z" fill="#C1C1C1"/>
<path d="M77.9903 155.958C65.8619 156.414 36.6927 155.785 31.2933 155.603C25.8939 155.42 24.5948 155.43 21.5297 155.278C19.8246 155.217 18.4544 154.161 18.495 152.923C18.5356 151.685 19.9667 150.721 21.6819 150.771C21.6819 150.771 23.9655 150.853 31.4455 151.096C55.4284 151.908 78.1426 151.451 78.1426 151.451C79.8578 151.512 81.2178 152.568 81.1772 153.806C81.1366 155.044 79.7056 156.008 77.9903 155.958Z" fill="#C1C1C1"/>
<path d="M112.521 67.3284C104.939 67.9779 99.1239 67.7546 95.4499 67.6328C94.4147 67.6328 93.5723 66.6788 93.5723 65.5116C93.5723 64.3445 94.4147 63.3904 95.4499 63.3904C101.732 63.5325 107.649 63.5224 112.521 63.0859C113.556 63.0859 114.399 64.04 114.399 65.2071C114.399 66.3743 113.556 67.3284 112.521 67.3284Z" fill="#C1C1C1"/>
<path d="M29.9446 121.483C30.6246 117.718 30.7768 113.161 30.6956 108.249C30.6956 108.157 30.6956 108.086 30.6956 108.035C30.6956 107.985 30.6652 107.934 30.6246 107.873C30.584 107.812 30.5129 107.792 30.4216 107.782L28.6759 107.68C27.9147 107.64 27.3768 107.67 27.0419 107.65C26.9302 108.289 27.1636 106.818 26.8795 108.746C26.5851 110.674 26.372 111.638 26.2299 111.628C25.9051 111.608 25.621 111.476 25.3875 111.222C25.1439 110.969 24.9714 110.674 24.8598 110.319C24.7481 109.974 24.6669 109.649 24.6162 109.345C24.5654 109.05 24.5451 108.817 24.5553 108.644C24.5959 107.843 25.0323 105.407 25.1642 105.082H25.2454C25.2454 105.082 25.2962 105.082 25.3266 105.082C27.8538 105.447 28.6353 105.589 32.4311 105.762C36.227 105.935 38.3888 105.782 40.9363 105.711H41.0175C41.0175 105.711 41.0682 105.711 41.0987 105.711C41.2002 106.046 41.119 108.259 41.0784 109.061C41.0784 109.223 41.0276 109.456 40.9464 109.741C40.8652 110.035 40.7536 110.35 40.6013 110.684C40.4491 111.019 40.1751 111.324 39.9112 111.547C39.6473 111.77 39.353 111.872 39.0282 111.852C38.8861 111.852 38.7745 110.867 38.7034 108.918C38.6324 106.97 38.7542 108.705 38.7136 108.056C38.3786 108.035 36.5315 108.107 35.7601 108.056L34.0144 107.954C33.8825 107.954 33.7912 107.985 33.7506 108.056C33.71 108.127 33.6897 108.238 33.6795 108.391C33.7201 113.415 33.5273 117.911 32.9285 121.473C32.9285 121.605 32.9285 121.707 32.9285 121.778C32.9285 121.849 32.9589 121.94 33.0097 122.031C33.0503 122.133 33.1314 122.143 33.2431 122.194C33.3547 122.245 33.8114 122.204 33.9941 122.214C34.39 122.234 34.664 122.245 34.938 122.366C35.2121 122.488 35.344 122.651 35.3338 122.853C35.273 123.99 35.0903 124.68 34.7959 124.914C33.5171 124.751 32.1876 124.833 31.2741 124.782C30.3607 124.731 29.2646 124.843 27.9451 124.863C27.6813 124.589 27.5798 123.889 27.6407 122.752C27.6508 122.549 27.8031 122.397 28.0872 122.316C28.3714 122.234 28.7165 122.194 29.1123 122.214C29.4472 122.234 29.6705 122.173 29.7822 122.042C29.8938 121.91 29.9547 121.707 29.975 121.453L29.9446 121.483Z" fill="black"/>
<path d="M77.3528 59.9692C77.3528 53.6969 71.8316 38.8789 63.8238 38.8789C56.4554 38.8789 50.8936 51.9208 50.8936 51.9208C50.8936 51.9208 48.3765 45.7398 43.6672 45.7398C37.4965 45.7398 34.0254 55.8181 34.0254 59.959H77.3528V59.9692Z" fill="white"/>
<path d="M45.4007 41.0279C48.0295 41.0279 50.1607 38.8967 50.1607 36.2678C50.1607 33.639 48.0295 31.5078 45.4007 31.5078C42.7718 31.5078 40.6406 33.639 40.6406 36.2678C40.6406 38.8967 42.7718 41.0279 45.4007 41.0279Z" fill="white"/>
<path d="M126.842 119.368C126.842 115.369 123.321 105.91 118.205 105.91C113.506 105.91 109.954 114.233 109.954 114.233C109.954 114.233 108.35 110.285 105.346 110.285C101.408 110.285 99.1855 116.719 99.1855 119.358H126.842V119.368Z" fill="white"/>
<path d="M106.451 107.28C108.127 107.28 109.485 105.922 109.485 104.246C109.485 102.57 108.127 101.211 106.451 101.211C104.775 101.211 103.416 102.57 103.416 104.246C103.416 105.922 104.775 107.28 106.451 107.28Z" fill="white"/>
</svg>
