<svg width="142" height="184" viewBox="0 0 142 184" fill="none" xmlns="http://www.w3.org/2000/svg">
<path d="M141 182.851H1C6.65528 144.997 3.12604 1 3.12604 1H105.304C118.56 1 138.874 13.0759 138.927 23.9081C139.31 105.134 141 182.851 141 182.851Z" fill="white" stroke="#0B5243" stroke-width="0.75" stroke-miterlimit="10"/>
<path d="M48.1864 28.0864C44.5827 28.3203 26.3732 28.6817 23.7156 28.3203C20.5691 27.9588 18.0391 25.9816 18.0391 23.1327C18.0391 20.2838 20.1545 17.9452 23.7156 17.9452C27.2767 17.9452 40.3625 17.9452 48.1864 17.7113C51.7156 17.5412 53.8629 20.0499 53.8629 22.8988C53.8629 25.7477 51.79 27.8525 48.1864 28.0864Z" fill="#0B5243"/>
<path d="M39.3952 106.877C36.8439 107.047 23.9495 107.302 22.0573 107.047C19.8249 106.792 18.0391 105.389 18.0391 103.369C18.0391 101.349 19.5379 99.6912 22.0573 99.6912C24.5766 99.6912 33.8462 99.6912 39.3952 99.5211C41.8933 99.4042 43.4134 101.179 43.4134 103.199C43.4134 105.219 41.9464 106.707 39.3952 106.877Z" fill="#0B5243"/>
<path d="M121.696 44.1808C112.213 44.7654 59.2961 44.7123 55.0759 44.5741C50.8557 44.4359 49.8458 44.4571 47.454 44.3189C46.1146 44.2764 45.0622 43.1709 45.1048 41.874C45.1473 40.5771 46.2741 39.5566 47.6135 39.5991C47.6135 39.5991 49.3994 39.6629 55.2354 39.8543C73.9658 40.4814 121.855 39.4609 121.855 39.4609C123.194 39.5035 124.247 40.609 124.204 41.9059C124.162 43.2028 123.035 44.2233 121.696 44.1808Z" fill="#83BAA0"/>
<path d="M121.578 58.4542C112.096 59.0389 59.1789 58.9857 54.9587 58.8475C50.7385 58.7093 49.7287 58.7306 47.3369 58.5924C45.9974 58.5499 44.9451 57.4443 44.9876 56.1474C45.0301 54.8505 46.1569 53.83 47.4963 53.8726C47.4963 53.8726 49.2822 53.9363 55.1182 54.1277C73.8486 54.7549 121.738 53.7344 121.738 53.7344C123.077 53.7769 124.13 54.8824 124.087 56.1793C124.045 57.4762 122.918 58.4967 121.578 58.4542Z" fill="#83BAA0"/>
<path d="M112.543 124.814C103.061 125.398 50.1438 125.345 45.9236 125.207C41.7034 125.069 40.6935 125.09 38.3017 124.952C36.9623 124.909 35.9099 123.804 35.9524 122.507C35.9949 121.21 37.1217 120.189 38.4611 120.232C38.4611 120.232 40.247 120.296 46.083 120.487C64.8135 121.114 112.703 120.094 112.703 120.094C114.042 120.136 115.094 121.242 115.052 122.539C115.009 123.836 113.883 124.856 112.543 124.814Z" fill="#83BAA0"/>
<path d="M121.769 73.7901C112.287 74.3748 32.6984 74.3216 28.4783 74.1834C24.2581 74.0453 23.2482 74.0665 20.8564 73.9283C19.517 73.8858 18.4646 72.7803 18.5071 71.4834C18.5496 70.1865 19.6764 69.166 21.0158 69.2085C21.0158 69.2085 22.8017 69.2723 28.6377 69.4636C47.3682 70.0908 121.929 69.0703 121.929 69.0703C123.268 69.1128 124.32 70.2184 124.278 71.5153C124.235 72.8121 123.108 73.8326 121.769 73.7901Z" fill="#83BAA0"/>
<path d="M121.769 89.9308C112.287 90.5154 32.6984 90.4623 28.4783 90.3241C24.2581 90.1859 23.2482 90.2071 20.8564 90.0689C19.517 90.0264 18.4646 88.9209 18.5071 87.624C18.5496 86.3271 19.6764 85.3066 21.0158 85.3491C21.0158 85.3491 22.8017 85.4129 28.6377 85.6043C47.3682 86.2314 121.929 85.2109 121.929 85.2109C123.268 85.2535 124.32 86.359 124.278 87.6559C124.235 88.9528 123.108 89.9733 121.769 89.9308Z" fill="#83BAA0"/>
<path d="M24.991 54.9844C24.991 51.6146 25.1079 46.459 25.0229 41.3139C25.0229 41.2183 25.0229 41.1439 25.0229 41.0907C25.0229 41.0376 24.991 40.9844 24.9485 40.9206C24.906 40.8568 24.8315 40.8356 24.7359 40.8249L22.9075 40.7186C22.1102 40.6761 21.398 40.708 21.0472 40.6868C21.0472 40.6868 20.9409 41.6328 20.9409 42.2813C20.9409 44.3223 20.4094 45.1089 20.2605 45.1089C19.9204 45.0877 19.6227 44.9495 19.3782 44.6837C19.1231 44.418 18.9424 44.1097 18.8255 43.7376C18.7085 43.3762 18.6235 43.036 18.5703 42.7171C18.5172 42.4088 18.4959 42.1644 18.5066 41.9836C18.5491 41.1439 18.5385 38.7308 18.6766 38.3906H18.7617C18.7617 38.3906 18.8148 38.3906 18.8467 38.3906L26.83 38.5182C26.83 38.5182 33.07 38.5394 35.7381 38.465H35.8232C35.8232 38.465 35.8763 38.465 35.9082 38.465C36.0145 38.8158 35.9295 41.1332 35.887 41.973C35.887 42.1431 35.8338 42.3876 35.7488 42.6852C35.6637 42.9935 35.5468 43.323 35.3874 43.6738C35.2279 44.0246 34.9409 44.3435 34.6645 44.5774C34.3881 44.8113 34.0798 44.9176 33.7397 44.8963C33.5908 44.8963 33.4739 43.8652 33.3995 41.8242C33.3251 39.7832 33.4527 41.601 33.4101 40.9206C33.0593 40.8994 31.1246 40.9738 30.3167 40.9206L28.4883 40.8143C28.3501 40.8143 28.2545 40.8462 28.212 40.9206C28.1694 40.995 28.1482 41.112 28.1375 41.2714C28.1801 46.5334 28.1057 52.4438 28.1057 54.9738C28.1057 55.112 28.1057 55.2183 28.1057 55.2927C28.1057 55.3671 28.1375 55.4628 28.1907 55.5584C28.2332 55.6647 28.3183 55.6754 28.4352 55.7285C28.5521 55.7817 29.0305 55.7391 29.2218 55.7498C29.6364 55.771 29.9234 55.7817 30.2104 55.9092C30.4975 56.0368 30.6356 56.2069 30.625 56.4195C30.5612 57.6101 30.3699 58.3329 30.0616 58.5774C28.7222 58.4073 27.3296 58.4924 26.3729 58.4392C25.4375 58.3861 24.2681 58.503 22.8862 58.5243C22.6098 58.2372 22.5035 57.5038 22.5673 56.3132C22.5779 56.1006 22.7374 55.9411 23.035 55.8561C23.3327 55.771 23.6941 55.7285 24.1087 55.7498C24.4595 55.771 24.6934 55.7073 24.8103 55.5691C24.9272 55.4309 24.991 55.2183 25.0123 54.9525L24.991 54.9844Z" fill="black"/>
<path d="M138.596 21.0812C135.8 17.9347 125.159 16.1488 116.974 21.0812C117.675 14.3842 113.019 1.51097 105.312 1.00072C105.312 1.00072 117.144 0.766852 127.615 8.75015C138.085 16.7334 138.596 21.0812 138.596 21.0812Z" fill="#CBEDE1" stroke="#0B5243" stroke-width="0.75" stroke-linecap="round" stroke-linejoin="round"/>
<path d="M26.1524 129.169H22.2511C19.753 129.169 17.7227 127.139 17.7227 124.641V120.739C17.7227 118.241 19.753 116.211 22.2511 116.211H26.1524C28.6505 116.211 30.6809 118.241 30.6809 120.739V124.641C30.6809 127.139 28.6505 129.169 26.1524 129.169ZM22.2511 118.348C20.933 118.348 19.8487 119.421 19.8487 120.75V124.651C19.8487 125.969 20.9224 127.054 22.2511 127.054H26.1524C27.4706 127.054 28.5549 125.98 28.5549 124.651V120.75C28.5549 119.432 27.4812 118.348 26.1524 118.348H22.2511Z" fill="#83BAA0"/>
<path d="M119.984 141.595C110.502 142.179 50.1438 142.126 45.9236 141.988C41.7034 141.85 40.6935 141.871 38.3017 141.733C36.9623 141.69 35.9099 140.585 35.9524 139.288C35.9949 137.991 37.1217 136.971 38.4611 137.013C38.4611 137.013 40.247 137.077 46.083 137.268C64.8135 137.896 120.144 136.875 120.144 136.875C121.483 136.918 122.536 138.023 122.493 139.32C122.451 140.617 121.324 141.637 119.984 141.595Z" fill="#83BAA0"/>
<path d="M26.1524 145.958H22.2511C19.753 145.958 17.7227 143.928 17.7227 141.43V137.528C17.7227 135.03 19.753 133 22.2511 133H26.1524C28.6505 133 30.6809 135.03 30.6809 137.528V141.43C30.6809 143.928 28.6505 145.958 26.1524 145.958ZM22.2511 135.137C20.933 135.137 19.8487 136.21 19.8487 137.539V141.44C19.8487 142.759 20.9224 143.843 22.2511 143.843H26.1524C27.4706 143.843 28.5549 142.769 28.5549 141.44V137.539C28.5549 136.221 27.4812 135.137 26.1524 135.137H22.2511Z" fill="#83BAA0"/>
<path d="M82.0226 158.634C72.5404 159.219 50.4934 159.165 46.2732 159.027C42.053 158.889 41.0431 158.91 38.6513 158.772C37.3119 158.73 36.2595 157.624 36.302 156.327C36.3445 155.03 37.4713 154.01 38.8108 154.052C38.8108 154.052 40.5966 154.116 46.4326 154.307C65.1631 154.935 82.1821 153.914 82.1821 153.914C83.5215 153.957 84.5739 155.062 84.5313 156.359C84.4888 157.656 83.362 158.676 82.0226 158.634Z" fill="#83BAA0"/>
<path d="M26.5137 162.997H22.6125C20.1144 162.997 18.084 160.967 18.084 158.469V154.568C18.084 152.069 20.1144 150.039 22.6125 150.039H26.5137C29.0119 150.039 31.0422 152.069 31.0422 154.568V158.469C31.0422 160.967 29.0119 162.997 26.5137 162.997ZM22.6125 152.176C21.2943 152.176 20.21 153.249 20.21 154.578V158.479C20.21 159.798 21.2837 160.882 22.6125 160.882H26.5137C27.8319 160.882 28.9162 159.808 28.9162 158.479V154.578C28.9162 153.26 27.8425 152.176 26.5137 152.176H22.6125Z" fill="#83BAA0"/>
</svg>
