<svg width="166" height="119" viewBox="0 0 166 119" fill="none" xmlns="http://www.w3.org/2000/svg">
<g opacity="0.8">
<path d="M159.325 1H9.23215C5.54577 1 2.55737 3.97636 2.55737 7.6479V111.606C2.55737 115.278 5.54577 118.254 9.23215 118.254H159.325C163.012 118.254 166 115.278 166 111.606V7.6479C166 3.97636 163.012 1 159.325 1Z" fill="black"/>
<path d="M157.768 1H7.67478C3.9884 1 1 3.97636 1 7.6479V111.606C1 115.278 3.9884 118.254 7.67478 118.254H157.768C161.454 118.254 164.443 115.278 164.443 111.606V7.6479C164.443 3.97636 161.454 1 157.768 1Z" fill="white" stroke="black" stroke-width="0.75" stroke-miterlimit="10"/>
<path d="M9.22835 1H159.325C163.007 1 166 3.97695 166 7.6479V11.2468H2.55737V7.6479C2.55737 3.97695 5.54636 1 9.22835 1Z" fill="black"/>
<path d="M7.67478 1H157.772C161.454 1 164.446 3.97695 164.446 7.6479V11.2468H1V7.6479C1 3.97695 3.9928 1 7.67478 1Z" fill="#C1C1C1" stroke="black" stroke-width="0.75" stroke-miterlimit="10"/>
<path d="M76.3935 16H9.93785C7.71719 16 5.91699 17.7929 5.91699 20.0047V109.297C5.91699 111.508 7.71719 113.301 9.93785 113.301H76.3935C78.6141 113.301 80.4143 111.508 80.4143 109.297V20.0047C80.4143 17.7929 78.6141 16 76.3935 16Z" fill="#C1C1C1"/>
<path d="M9.06846 8.45922C10.2377 8.45922 11.1855 7.51521 11.1855 6.3507C11.1855 5.1862 10.2377 4.24219 9.06846 4.24219C7.89925 4.24219 6.95142 5.1862 6.95142 6.3507C6.95142 7.51521 7.89925 8.45922 9.06846 8.45922Z" fill="#FBF9ED" stroke="black" stroke-width="0.75" stroke-miterlimit="10"/>
<path d="M15.4198 8.45922C16.589 8.45922 17.5368 7.51521 17.5368 6.3507C17.5368 5.1862 16.589 4.24219 15.4198 4.24219C14.2506 4.24219 13.3027 5.1862 13.3027 6.3507C13.3027 7.51521 14.2506 8.45922 15.4198 8.45922Z" fill="#FBF9ED" stroke="black" stroke-width="0.75" stroke-miterlimit="10"/>
<path d="M21.7709 8.45922C22.9401 8.45922 23.8879 7.51521 23.8879 6.3507C23.8879 5.1862 22.9401 4.24219 21.7709 4.24219C20.6016 4.24219 19.6538 5.1862 19.6538 6.3507C19.6538 7.51521 20.6016 8.45922 21.7709 8.45922Z" fill="#FBF9ED" stroke="black" stroke-width="0.75" stroke-miterlimit="10"/>
<path d="M62.9593 73.6875H11.6678C8.17715 73.6875 5.34741 76.5172 5.34741 80.0079V91.7978C5.34741 95.2885 8.17715 98.1182 11.6678 98.1182H62.9593C66.4499 98.1182 69.2797 95.2885 69.2797 91.7978V80.0079C69.2797 76.5172 66.4499 73.6875 62.9593 73.6875Z" fill="black"/>
<path d="M61.3655 73.6875H10.0741C6.5834 73.6875 3.75366 76.5172 3.75366 80.0079V91.7978C3.75366 95.2885 6.5834 98.1182 10.0741 98.1182H61.3655C64.8562 98.1182 67.6859 95.2885 67.6859 91.7978V80.0079C67.6859 76.5172 64.8562 73.6875 61.3655 73.6875Z" fill="white" stroke="black" stroke-width="0.75" stroke-linecap="round" stroke-linejoin="round"/>
<path d="M39.5741 80.1016H29.385C28.5706 80.1016 27.9104 80.7618 27.9104 81.5762C27.9104 82.3906 28.5706 83.0508 29.385 83.0508H39.5741C40.3885 83.0508 41.0487 82.3906 41.0487 81.5762C41.0487 80.7618 40.3885 80.1016 39.5741 80.1016Z" fill="black"/>
<path d="M100.146 40.875H89.9571C89.1426 40.875 88.4824 41.5352 88.4824 42.3496C88.4824 43.1641 89.1426 43.8243 89.9571 43.8243H100.146C100.961 43.8243 101.621 43.1641 101.621 42.3496C101.621 41.5352 100.961 40.875 100.146 40.875Z" fill="black"/>
<path d="M100.146 64.3125H89.9571C89.1426 64.3125 88.4824 64.9727 88.4824 65.7871C88.4824 66.6016 89.1426 67.2618 89.9571 67.2618H100.146C100.961 67.2618 101.621 66.6016 101.621 65.7871C101.621 64.9727 100.961 64.3125 100.146 64.3125Z" fill="black"/>
<path d="M100.146 40.875H89.9571C89.1426 40.875 88.4824 41.5352 88.4824 42.3496C88.4824 43.1641 89.1426 43.8243 89.9571 43.8243H100.146C100.961 43.8243 101.621 43.1641 101.621 42.3496C101.621 41.5352 100.961 40.875 100.146 40.875Z" fill="black"/>
<path d="M100.146 64.3125H89.9571C89.1426 64.3125 88.4824 64.9727 88.4824 65.7871C88.4824 66.6016 89.1426 67.2618 89.9571 67.2618H100.146C100.961 67.2618 101.621 66.6016 101.621 65.7871C101.621 64.9727 100.961 64.3125 100.146 64.3125Z" fill="black"/>
<path d="M109.214 24.2891H91.2091C89.7032 24.2891 88.4824 25.4544 88.4824 26.8919C88.4824 28.3294 89.7032 29.4947 91.2091 29.4947H109.214C110.72 29.4947 111.941 28.3294 111.941 26.8919C111.941 25.4544 110.72 24.2891 109.214 24.2891Z" fill="black"/>
<path d="M148.352 88.1094H93.5114C90.734 88.1094 88.4824 90.2587 88.4824 92.91C88.4824 95.5613 90.734 97.7106 93.5114 97.7106H148.352C151.129 97.7106 153.381 95.5613 153.381 92.91C153.381 90.2587 151.129 88.1094 148.352 88.1094Z" fill="black"/>
<path d="M38.3662 47.0078H15.3941C14.1425 47.0078 13.1279 47.9763 13.1279 49.1711C13.1279 50.3658 14.1425 51.3344 15.3941 51.3344H38.3662C39.6178 51.3344 40.6324 50.3658 40.6324 49.1711C40.6324 47.9763 39.6178 47.0078 38.3662 47.0078Z" fill="black"/>
<path d="M119.688 32.9453H89.391C88.8892 32.9453 88.4824 33.3521 88.4824 33.8539C88.4824 34.3557 88.8892 34.7625 89.391 34.7625H119.688C120.19 34.7625 120.596 34.3557 120.596 33.8539C120.596 33.3521 120.19 32.9453 119.688 32.9453Z" fill="#C1C1C1"/>
<path d="M128.341 107.578H105.255C104.753 107.578 104.346 107.985 104.346 108.487C104.346 108.988 104.753 109.395 105.255 109.395H128.341C128.843 109.395 129.249 108.988 129.249 108.487C129.249 107.985 128.843 107.578 128.341 107.578Z" fill="#C1C1C1"/>
<path d="M136.273 107.578H131.214C130.713 107.578 130.306 107.985 130.306 108.487C130.306 108.988 130.713 109.395 131.214 109.395H136.273C136.775 109.395 137.182 108.988 137.182 108.487C137.182 107.985 136.775 107.578 136.273 107.578Z" fill="#C1C1C1"/>
<path d="M59.347 39.7969H15.4025C14.1463 39.7969 13.1279 40.7654 13.1279 41.9602C13.1279 43.1549 14.1463 44.1234 15.4025 44.1234H59.347C60.6032 44.1234 61.6216 43.1549 61.6216 41.9602C61.6216 40.7654 60.6032 39.7969 59.347 39.7969Z" fill="black"/>
<path d="M59.1158 85.5625H28.819C28.3172 85.5625 27.9104 85.9693 27.9104 86.4711C27.9104 86.9729 28.3172 87.3797 28.819 87.3797H59.1158C59.6176 87.3797 60.0244 86.9729 60.0244 86.4711C60.0244 85.9693 59.6176 85.5625 59.1158 85.5625Z" fill="#C1C1C1"/>
<path d="M149.214 48.0859H94.2931C91.7924 48.0859 89.7651 50.1345 89.7651 52.6616C89.7651 55.1887 91.7924 57.2372 94.2931 57.2372H149.214C151.714 57.2372 153.742 55.1887 153.742 52.6616C153.742 50.1345 151.714 48.0859 149.214 48.0859Z" fill="black" stroke="black" stroke-width="0.75" stroke-miterlimit="10"/>
<path d="M149.214 71.5234H94.2931C91.7924 71.5234 89.7651 73.572 89.7651 76.0991C89.7651 78.6262 91.7924 80.6747 94.2931 80.6747H149.214C151.714 80.6747 153.742 78.6262 153.742 76.0991C153.742 73.572 151.714 71.5234 149.214 71.5234Z" fill="black" stroke="black" stroke-width="0.75" stroke-miterlimit="10"/>
<path d="M148.291 48.0859H93.0104C90.5097 48.0859 88.4824 50.1345 88.4824 52.6616C88.4824 55.1887 90.5097 57.2372 93.0104 57.2372H148.291C150.792 57.2372 152.819 55.1887 152.819 52.6616C152.819 50.1345 150.792 48.0859 148.291 48.0859Z" fill="white" stroke="black" stroke-width="0.75" stroke-miterlimit="10"/>
<path d="M148.291 71.5234H93.0104C90.5097 71.5234 88.4824 73.572 88.4824 76.0991C88.4824 78.6262 90.5097 80.6747 93.0104 80.6747H148.291C150.792 80.6747 152.819 78.6262 152.819 76.0991C152.819 73.572 150.792 71.5234 148.291 71.5234Z" fill="white" stroke="black" stroke-width="0.75" stroke-miterlimit="10"/>
<path d="M117.278 51.3359H93.9386C93.3148 51.3359 92.8091 51.9009 92.8091 52.5979C92.8091 53.2948 93.3148 53.8598 93.9386 53.8598H117.278C117.902 53.8598 118.408 53.2948 118.408 52.5979C118.408 51.9009 117.902 51.3359 117.278 51.3359Z" fill="#C1C1C1"/>
<path d="M124.489 74.7656H93.9386C93.3148 74.7656 92.8091 75.3306 92.8091 76.0275C92.8091 76.7245 93.3148 77.2895 93.9386 77.2895H124.489C125.113 77.2895 125.619 76.7245 125.619 76.0275C125.619 75.3306 125.113 74.7656 124.489 74.7656Z" fill="#C1C1C1"/>
<path d="M71.1051 57.1016H15.0018C14.3652 57.1016 13.8491 57.5858 13.8491 58.1832C13.8491 58.7806 14.3652 59.2648 15.0018 59.2648H71.1051C71.7417 59.2648 72.2578 58.7806 72.2578 58.1832C72.2578 57.5858 71.7417 57.1016 71.1051 57.1016Z" fill="white"/>
<path d="M52.2113 89.7656H28.819C28.3172 89.7656 27.9104 90.1724 27.9104 90.6742C27.9104 91.176 28.3172 91.5828 28.819 91.5828H52.2113C52.7131 91.5828 53.1199 91.176 53.1199 90.6742C53.1199 90.1724 52.7131 89.7656 52.2113 89.7656Z" fill="#C1C1C1"/>
<path d="M59.2032 62.5078H15.0056C14.3669 62.5078 13.8491 62.9921 13.8491 63.5895C13.8491 64.1868 14.3669 64.6711 15.0056 64.6711H59.2032C59.8419 64.6711 60.3597 64.1868 60.3597 63.5895C60.3597 62.9921 59.8419 62.5078 59.2032 62.5078Z" fill="white"/>
<path d="M16.2538 92.7669C20.077 92.7669 23.1763 89.6676 23.1763 85.8444C23.1763 82.0212 20.077 78.9219 16.2538 78.9219C12.4306 78.9219 9.3313 82.0212 9.3313 85.8444C9.3313 89.6676 12.4306 92.7669 16.2538 92.7669Z" fill="black" stroke="black"/>
<path d="M16.2539 92.7645C18.4821 92.7645 20.4579 91.7081 21.7234 90.0748C20.7283 88.0558 18.6552 86.6641 16.2539 86.6641C13.8527 86.6641 11.7795 88.0558 10.7844 90.0748C12.0499 91.7081 14.0257 92.7645 16.2539 92.7645Z" fill="white"/>
<path d="M16.2541 85.8422C17.5006 85.8422 18.5111 84.8317 18.5111 83.5852C18.5111 82.3386 17.5006 81.3281 16.2541 81.3281C15.0076 81.3281 13.9971 82.3386 13.9971 83.5852C13.9971 84.8317 15.0076 85.8422 16.2541 85.8422Z" fill="white"/>
<circle cx="17.2743" cy="28.0748" r="3.78575" fill="black"/>
<circle cx="36.6373" cy="108.735" r="1.51594" fill="black"/>
<circle cx="41.6849" cy="108.735" r="1.51594" fill="white"/>
<circle cx="46.7327" cy="108.735" r="1.51594" fill="white"/>
</g>
</svg>
