<svg width="24" height="28" viewBox="0 0 24 28" fill="none" xmlns="http://www.w3.org/2000/svg">
<path fill-rule="evenodd" clip-rule="evenodd" d="M8.37544 3.54688C6.60697 3.54688 4.97283 4.49034 4.0886 6.02188L0.913174 11.5219C0.0289426 13.0534 0.0289411 14.9403 0.913174 16.4719L4.0886 21.9719C4.97283 23.5034 6.60697 24.4469 8.37544 24.4469H14.7263C16.4948 24.4469 18.1289 23.5034 19.0131 21.9719L22.1885 16.4719C23.0728 14.9403 23.0728 13.0534 22.1885 11.5219L19.0131 6.02188C18.1289 4.49034 16.4948 3.54688 14.7263 3.54688H8.37544ZM14.7263 6.84687H10.757C10.1219 6.84687 9.72508 7.53431 10.0431 8.08404C11.0243 9.78013 12.0078 11.475 12.9876 13.1719C13.2823 13.6824 13.2823 14.3114 12.9876 14.8219C12.0078 16.5188 11.0243 18.2136 10.0431 19.9097C9.72508 20.4594 10.1219 21.1469 10.757 21.1469H14.7263C15.3158 21.1469 15.8605 20.8324 16.1552 20.3219L19.3307 14.8219C19.6254 14.3114 19.6254 13.6824 19.3307 13.1719L16.1552 7.67187C15.8605 7.16136 15.3158 6.84687 14.7263 6.84687Z" fill="#424242"/>
</svg>
