<svg width="165" height="132" viewBox="0 0 165 132" fill="none" xmlns="http://www.w3.org/2000/svg">
<path d="M86.7122 3.54842C87.7794 2.79067 89.2635 3.3395 89.5788 4.608L107.602 77.1254C107.936 78.4665 106.72 79.7533 105.314 79.5436C95.5797 78.0914 75.1043 76.8678 56.5731 78.6508C51.8814 79.1022 47.1878 79.7595 42.7726 80.2645C38.3455 80.7708 34.1846 81.1255 30.5058 80.9838C26.8242 80.8419 23.6617 80.2033 21.2115 78.7515C18.777 77.3088 17.0137 75.0445 16.152 71.5774L12.6477 57.478C11.7897 54.0253 12.4147 51.0083 14.0611 48.3017C15.7153 45.5823 18.4073 43.1667 21.6928 40.958C28.275 36.5331 37.0936 33.027 44.3922 29.5603C60.8482 21.744 77.9691 9.75737 86.7122 3.54842Z" fill="#0B5243" stroke="#0B5243" stroke-width="0.75"/>
<path d="M34.177 78.0136L47.5388 77.2739C48.0531 77.2455 48.5201 77.5731 48.6672 78.0668L60.8961 119.108C61.0818 119.731 60.6956 120.381 60.0592 120.515L40.9316 124.551C40.3032 124.684 39.6935 124.258 39.6008 123.623L33.1369 79.2851C33.0428 78.6381 33.5242 78.0498 34.177 78.0136Z" fill="#0B5243" stroke="#0B5243" stroke-width="0.75"/>
<path d="M31.2422 78.7402L44.604 78.0005C45.1183 77.972 45.5853 78.2997 45.7324 78.7934L57.9612 119.834C58.147 120.458 57.7608 121.107 57.1244 121.242L37.9968 125.278C37.3684 125.41 36.7587 124.985 36.666 124.349L30.2021 80.0116C30.108 79.3647 30.5894 78.7763 31.2422 78.7402Z" fill="#088F73" stroke="#0B5243" stroke-width="0.75"/>
<mask id="path-4-inside-1_18567_8767" fill="white">
<path d="M91.0594 27.562C97.2691 26.0187 103.893 31.1632 105.854 39.0525C107.815 46.9418 104.37 54.5888 98.1604 56.1322C96.8994 56.4456 95.6212 56.4828 94.3686 56.2776C92.9917 52.0807 91.6929 47.5767 90.5214 42.8632C89.3498 38.1494 88.3887 33.5612 87.6406 29.2076C88.6514 28.4401 89.7986 27.8753 91.0594 27.562Z"/>
</mask>
<path d="M91.0594 27.562C97.2691 26.0187 103.893 31.1632 105.854 39.0525C107.815 46.9418 104.37 54.5888 98.1604 56.1322C96.8994 56.4456 95.6212 56.4828 94.3686 56.2776C92.9917 52.0807 91.6929 47.5767 90.5214 42.8632C89.3498 38.1494 88.3887 33.5612 87.6406 29.2076C88.6514 28.4401 89.7986 27.8753 91.0594 27.562Z" fill="#FBF9ED"/>
<path d="M91.0594 27.562L90.8786 26.8341L90.8785 26.8341L91.0594 27.562ZM105.854 39.0525L106.582 38.8716L106.582 38.8716L105.854 39.0525ZM98.1604 56.1322L98.3413 56.8601L98.3413 56.86L98.1604 56.1322ZM94.3686 56.2776L93.656 56.5114L93.798 56.9442L94.2474 57.0178L94.3686 56.2776ZM90.5214 42.8632L89.7935 43.0441L90.5214 42.8632ZM87.6406 29.2076L87.187 28.6104L86.8243 28.8858L86.9014 29.3347L87.6406 29.2076ZM91.0594 27.562L91.2403 28.2898C96.8953 26.8844 103.222 31.5741 105.126 39.2334L105.854 39.0525L106.582 38.8716C104.564 30.7523 97.6429 25.153 90.8786 26.8341L91.0594 27.562ZM105.854 39.0525L105.126 39.2334C107.03 46.8927 103.634 53.9988 97.9795 55.4043L98.1604 56.1322L98.3413 56.86C105.106 55.1788 108.6 46.9909 106.582 38.8716L105.854 39.0525ZM98.1604 56.1322L97.9795 55.4043C96.8219 55.692 95.6467 55.7269 94.4899 55.5375L94.3686 56.2776L94.2474 57.0178C95.5958 57.2386 96.9769 57.1991 98.3413 56.8601L98.1604 56.1322ZM94.3686 56.2776L95.0813 56.0438C93.7102 51.865 92.4165 47.3786 91.2493 42.6823L90.5214 42.8632L89.7935 43.0441C90.9693 47.7748 92.2731 52.2965 93.656 56.5114L94.3686 56.2776ZM90.5214 42.8632L91.2493 42.6823C90.0819 37.9857 89.1247 33.4154 88.3798 29.0806L87.6406 29.2076L86.9014 29.3347C87.6528 33.7069 88.6177 38.3131 89.7935 43.0441L90.5214 42.8632ZM87.6406 29.2076L88.0942 29.8049C89.0274 29.0963 90.0825 28.5776 91.2404 28.2898L91.0594 27.562L90.8785 26.8341C89.5147 27.1731 88.2753 27.7839 87.187 28.6104L87.6406 29.2076Z" fill="#0B5243" mask="url(#path-4-inside-1_18567_8767)"/>
<path d="M83.1153 3.54842C84.1825 2.79067 85.6666 3.3395 85.9819 4.608L104.006 77.1254C104.339 78.4665 103.123 79.7533 101.718 79.5436C91.9827 78.0914 71.5073 76.8678 52.9762 78.6508C48.2845 79.1022 43.5909 79.7595 39.1757 80.2645C34.7485 80.7708 30.5877 81.1255 26.9089 80.9838C23.2272 80.8419 20.0648 80.2033 17.6146 78.7515C15.1801 77.3088 13.4168 75.0445 12.5551 71.5774L9.0508 57.478C8.19277 54.0253 8.81775 51.0083 10.4641 48.3017C12.1184 45.5823 14.8104 43.1667 18.0959 40.958C24.6781 36.5331 33.4967 33.027 40.7952 29.5603C57.2513 21.744 74.3721 9.75737 83.1153 3.54842Z" fill="#0CC79F" stroke="#0B5243" stroke-width="0.75"/>
<mask id="path-7-inside-2_18567_8767" fill="white">
<path d="M51.2913 79.1961C42.5483 80.122 33.9538 81.6077 27.0094 81.36L17.0359 41.2322C23.2663 36.8313 31.7887 33.3288 39.054 29.9597L51.2913 79.1961Z"/>
</mask>
<path d="M51.2913 79.1961C42.5483 80.122 33.9538 81.6077 27.0094 81.36L17.0359 41.2322C23.2663 36.8313 31.7887 33.3288 39.054 29.9597L51.2913 79.1961Z" fill="#FBF9ED"/>
<path d="M51.2913 79.1961L51.3703 79.9419L52.2269 79.8512L52.0191 79.0152L51.2913 79.1961ZM27.0094 81.36L26.2815 81.5409L26.4179 82.0894L26.9827 82.1096L27.0094 81.36ZM17.0359 41.2322L16.6032 40.6197L16.1844 40.9155L16.3081 41.4131L17.0359 41.2322ZM39.054 29.9597L39.7818 29.7788L39.5627 28.897L38.7384 29.2793L39.054 29.9597ZM51.2913 79.1961L51.2123 78.4503C42.3887 79.3847 33.9101 80.8556 27.0361 80.6105L27.0094 81.36L26.9827 82.1096C33.9976 82.3597 42.7078 80.8593 51.3703 79.9419L51.2913 79.1961ZM27.0094 81.36L27.7372 81.1791L17.7638 41.0513L17.0359 41.2322L16.3081 41.4131L26.2815 81.5409L27.0094 81.36ZM17.0359 41.2322L17.4687 41.8448C23.6262 37.4953 32.0504 34.0342 39.3695 30.6401L39.054 29.9597L38.7384 29.2793C31.527 32.6234 22.9064 36.1673 16.6032 40.6197L17.0359 41.2322ZM39.054 29.9597L38.3261 30.1406L50.5634 79.377L51.2913 79.1961L52.0191 79.0152L39.7818 29.7788L39.054 29.9597Z" fill="#0B5243" mask="url(#path-7-inside-2_18567_8767)"/>
<path d="M147.789 30.4551L126.56 36.4212" stroke="#0B5243" stroke-width="2.30588" stroke-linecap="round" stroke-linejoin="round"/>
<path d="M129.48 5.18863L116.033 22.6656" stroke="#0B5243" stroke-width="2.30588" stroke-linecap="round" stroke-linejoin="round"/>
<path d="M147.385 58.2933L126.15 52.3501" stroke="#0B5243" stroke-width="2.30588" stroke-linecap="round" stroke-linejoin="round"/>
</svg>
