<svg width="166" height="63" viewBox="0 0 166 63" fill="none" xmlns="http://www.w3.org/2000/svg">
<path d="M150.085 1H20.929C12.1392 1 5.01367 8.12553 5.01367 16.9153V46.6033C5.01367 55.3931 12.1392 62.5187 20.929 62.5187H150.085C158.875 62.5187 166.001 55.3931 166.001 46.6033V16.9153C166.001 8.12553 158.875 1 150.085 1Z" fill="black"/>
<path d="M146.072 1H16.9153C8.12553 1 1 8.12553 1 16.9153V46.6033C1 55.3931 8.12553 62.5187 16.9153 62.5187H146.072C154.862 62.5187 161.987 55.3931 161.987 46.6033V16.9153C161.987 8.12553 154.862 1 146.072 1Z" fill="white" stroke="black" stroke-width="0.75" stroke-linecap="round" stroke-linejoin="round"/>
<path d="M91.1984 17.1523H65.5414C63.4906 17.1523 61.8281 18.8148 61.8281 20.8656C61.8281 22.9164 63.4906 24.5789 65.5414 24.5789H91.1984C93.2492 24.5789 94.9117 22.9164 94.9117 20.8656C94.9117 18.8148 93.2492 17.1523 91.1984 17.1523Z" fill="black"/>
<path d="M140.406 30.8984H64.116C62.8524 30.8984 61.8281 31.9228 61.8281 33.1863C61.8281 34.4499 62.8524 35.4742 64.116 35.4742H140.406C141.67 35.4742 142.694 34.4499 142.694 33.1863C142.694 31.9228 141.67 30.8984 140.406 30.8984Z" fill="#C1C1C1"/>
<path d="M123.02 41.4922H64.116C62.8524 41.4922 61.8281 42.5165 61.8281 43.7801C61.8281 45.0436 62.8524 46.068 64.116 46.068H123.02C124.284 46.068 125.308 45.0436 125.308 43.7801C125.308 42.5165 124.284 41.4922 123.02 41.4922Z" fill="#C1C1C1"/>
<path d="M32.4745 49.0466C42.1016 49.0466 49.906 41.2422 49.906 31.6151C49.906 21.9879 42.1016 14.1836 32.4745 14.1836C22.8473 14.1836 15.043 21.9879 15.043 31.6151C15.043 41.2422 22.8473 49.0466 32.4745 49.0466Z" fill="black" stroke="black"/>
<path d="M32.4758 49.0451C38.0866 49.0451 43.0618 46.385 46.2485 42.2722C43.7427 37.1881 38.5224 33.6836 32.4758 33.6836C26.4293 33.6836 21.2089 37.1881 18.7031 42.2722C21.8898 46.385 26.8651 49.0451 32.4758 49.0451Z" fill="white"/>
<path d="M32.4764 31.6129C35.6152 31.6129 38.1598 29.0683 38.1598 25.9295C38.1598 22.7906 35.6152 20.2461 32.4764 20.2461C29.3375 20.2461 26.793 22.7906 26.793 25.9295C26.793 29.0683 29.3375 31.6129 32.4764 31.6129Z" fill="white"/>
</svg>
