<svg width="166" height="145" viewBox="0 0 166 145" fill="none" xmlns="http://www.w3.org/2000/svg">
<rect x="21.031" width="144.047" height="144.047" rx="10.2989" fill="#0B5243"/>
<rect x="18.2025" y="0.482759" width="143.082" height="143.082" rx="9.81609" fill="white" stroke="#0B5243" stroke-width="0.965517"/>
<path d="M28.0186 0.482422H151.468C156.889 0.482422 161.284 4.87756 161.284 10.2988V24.3525H18.2021V10.2988C18.2022 4.87757 22.5973 0.482434 28.0186 0.482422Z" fill="#CBEDE1" stroke="#0B5243" stroke-width="0.965517"/>
<path d="M32.4734 17.918C35.1351 17.918 37.2928 15.7603 37.2928 13.0986C37.2928 10.437 35.1351 8.2793 32.4734 8.2793C29.8117 8.2793 27.6541 10.437 27.6541 13.0986C27.6541 15.7603 29.8117 17.918 32.4734 17.918Z" fill="#FBF9ED" stroke="#0B5243" stroke-width="0.965517" stroke-miterlimit="10"/>
<path d="M46.9414 17.918C49.6031 17.918 51.7608 15.7603 51.7608 13.0986C51.7608 10.437 49.6031 8.2793 46.9414 8.2793C44.2798 8.2793 42.1221 10.437 42.1221 13.0986C42.1221 15.7603 44.2798 17.918 46.9414 17.918Z" fill="#FBF9ED" stroke="#0B5243" stroke-width="0.965517" stroke-miterlimit="10"/>
<path d="M61.4209 17.918C64.0826 17.918 66.2403 15.7603 66.2403 13.0986C66.2403 10.437 64.0826 8.2793 61.4209 8.2793C58.7593 8.2793 56.6016 10.437 56.6016 13.0986C56.6016 15.7603 58.7593 17.918 61.4209 17.918Z" fill="#FBF9ED" stroke="#0B5243" stroke-width="0.965517" stroke-miterlimit="10"/>
<path d="M76.8821 78.4531C62.5066 78.4531 43.5783 91.4458 44.5268 103.893C44.9484 109.413 50.4077 112.771 56.4571 111.239C62.5066 109.707 65.0993 104.585 61.2419 100.282C56.0988 94.5313 42.8827 92.6632 26.9053 104.166C13.4784 113.821 4.1196 129.038 1 144.046" stroke="#0B5243" stroke-width="1.34152" stroke-linecap="round" stroke-linejoin="round"/>
<path d="M121.934 12.8613C105.612 12.8613 89.7434 25.9721 89.7434 45.4123C89.7434 62.0503 109.242 82.1474 116.04 87.4572L120.625 87.4572C121.475 87.4572 122.286 87.1999 122.959 86.6801C128.307 82.5517 152.764 62.7268 152.764 45.4123C152.764 25.9721 138.256 12.8613 121.934 12.8613Z" fill="#0B5243" stroke="#0B5243" stroke-width="0.75" stroke-linejoin="round"/>
<path d="M84.5989 45.5769C84.5989 62.3359 108.282 82.1036 115.02 87.3886C116.069 88.2116 117.499 88.1958 118.53 87.3504C125.046 82.0087 147.62 62.2957 147.62 45.5769C147.62 26.0384 133.111 12.8613 116.789 12.8613C100.467 12.8613 84.5989 26.0384 84.5989 45.5769Z" fill="#0CC79F" stroke="#0B5243" stroke-width="0.75" stroke-linejoin="round"/>
<path d="M116.109 60.4483C124.988 60.4483 132.186 53.2505 132.186 44.3716C132.186 35.4927 124.988 28.2949 116.109 28.2949C107.23 28.2949 100.032 35.4927 100.032 44.3716C100.032 53.2505 107.23 60.4483 116.109 60.4483Z" fill="#FBF9ED"/>
</svg>
