<svg width="147" height="113" viewBox="0 0 147 113" fill="none" xmlns="http://www.w3.org/2000/svg">
<path d="M123.654 1H28.3644C16.0237 1 6.01953 11.0073 6.01953 23.3519V90.127C6.01953 102.472 16.0237 112.479 28.3644 112.479H123.654C135.995 112.479 145.999 102.472 145.999 90.127V23.3519C145.999 11.0073 135.995 1 123.654 1Z" fill="#0B5243" stroke="#0B5243" stroke-width="0.75" stroke-miterlimit="10"/>
<path d="M118.635 1H23.3448C11.0041 1 1 11.0073 1 23.3519V90.127C1 102.472 11.0041 112.479 23.3448 112.479H118.635C130.975 112.479 140.98 102.472 140.98 90.127V23.3519C140.98 11.0073 130.975 1 118.635 1Z" fill="white" stroke="#0B5243" stroke-width="0.75" stroke-miterlimit="10"/>
<path d="M118.81 61.3516H27.6597C25.6061 61.3516 23.9414 63.0168 23.9414 65.071V66.5272C23.9414 68.5815 25.6061 70.2467 27.6597 70.2467H118.81C120.864 70.2467 122.529 68.5815 122.529 66.5272V65.071C122.529 63.0168 120.864 61.3516 118.81 61.3516Z" fill="#83BAA0"/>
<path d="M91.5546 83.1953H27.6597C25.6061 83.1953 23.9414 84.8606 23.9414 86.9148V88.371C23.9414 90.4252 25.6061 92.0905 27.6597 92.0905H91.5546C93.6082 92.0905 95.273 90.4252 95.273 88.371V86.9148C95.273 84.8606 93.6082 83.1953 91.5546 83.1953Z" fill="#83BAA0"/>
<path d="M69.7865 25.3047H31.902C27.9402 25.3047 24.7285 28.5174 24.7285 32.4805V35.3227C24.7285 39.2858 27.9402 42.4985 31.902 42.4985H69.7865C73.7483 42.4985 76.96 39.2858 76.96 35.3227V32.4805C76.96 28.5174 73.7483 25.3047 69.7865 25.3047Z" fill="#0B5243"/>
</svg>
