<svg width="160" height="155" viewBox="0 0 160 155" fill="none" xmlns="http://www.w3.org/2000/svg">
<rect x="2.90039" y="28.168" width="126.196" height="126.197" rx="10.2989" fill="#0B5243"/>
<rect x="0.482759" y="28.6507" width="125.231" height="125.231" rx="9.81609" fill="white" stroke="#0B5243" stroke-width="0.965517"/>
<path d="M10.2988 28.6504H115.897C121.319 28.6504 125.714 33.0455 125.714 38.4668V49.4434H0.482422V38.4668C0.482434 33.0455 4.87757 28.6504 10.2988 28.6504Z" fill="#CBEDE1" stroke="#0B5243" stroke-width="0.965517"/>
<path d="M12.9252 43.8661C15.257 43.8661 17.1474 41.9758 17.1474 39.644C17.1474 37.3122 15.257 35.4219 12.9252 35.4219C10.5934 35.4219 8.70312 37.3122 8.70312 39.644C8.70312 41.9758 10.5934 43.8661 12.9252 43.8661Z" fill="#FBF9ED" stroke="#0B5243" stroke-width="0.965517" stroke-miterlimit="10"/>
<path d="M25.5991 43.8661C27.9309 43.8661 29.8212 41.9758 29.8212 39.644C29.8212 37.3122 27.9309 35.4219 25.5991 35.4219C23.2673 35.4219 21.377 37.3122 21.377 39.644C21.377 41.9758 23.2673 43.8661 25.5991 43.8661Z" fill="#FBF9ED" stroke="#0B5243" stroke-width="0.965517" stroke-miterlimit="10"/>
<path d="M38.2866 43.8661C40.6184 43.8661 42.5087 41.9758 42.5087 39.644C42.5087 37.3122 40.6184 35.4219 38.2866 35.4219C35.9548 35.4219 34.0645 37.3122 34.0645 39.644C34.0645 41.9758 35.9548 43.8661 38.2866 43.8661Z" fill="#FBF9ED" stroke="#0B5243" stroke-width="0.965517" stroke-miterlimit="10"/>
<path d="M45.4641 76.6211H13.6221C11.0769 76.6211 9.01367 78.6844 9.01367 81.2295C9.01367 83.7747 11.0769 85.838 13.6221 85.838H45.4641C48.0093 85.838 50.0725 83.7747 50.0725 81.2295C50.0725 78.6844 48.0093 76.6211 45.4641 76.6211Z" fill="#0B5243"/>
<path d="M106.534 98.1875H11.8531C10.2849 98.1875 9.01367 99.4588 9.01367 101.027C9.01367 102.595 10.2849 103.866 11.8531 103.866H106.534C108.102 103.866 109.374 102.595 109.374 101.027C109.374 99.4588 108.102 98.1875 106.534 98.1875Z" fill="#83BAA0"/>
<path d="M84.9568 112.461H11.8531C10.2849 112.461 9.01367 113.732 9.01367 115.3C9.01367 116.869 10.2849 118.14 11.8531 118.14H84.9568C86.525 118.14 87.7962 116.869 87.7962 115.3C87.7962 113.732 86.525 112.461 84.9568 112.461Z" fill="#83BAA0"/>
<mask id="path-10-inside-1_18567_3317" fill="white">
<path d="M124.303 0C144.017 0 159.999 13.6511 159.999 30.4902C159.999 47.3293 144.017 60.9805 124.303 60.9805C121.907 60.9804 119.567 60.776 117.304 60.3916L109.974 66.2246C108.694 67.2426 106.8 66.3781 106.73 64.7441L106.396 56.8701C95.76 51.5911 88.6075 41.7548 88.6074 30.4902C88.6074 13.6512 104.589 0.000168297 124.303 0Z"/>
</mask>
<path d="M124.303 0C144.017 0 159.999 13.6511 159.999 30.4902C159.999 47.3293 144.017 60.9805 124.303 60.9805C121.907 60.9804 119.567 60.776 117.304 60.3916L109.974 66.2246C108.694 67.2426 106.8 66.3781 106.73 64.7441L106.396 56.8701C95.76 51.5911 88.6075 41.7548 88.6074 30.4902C88.6074 13.6512 104.589 0.000168297 124.303 0Z" fill="#0B5243"/>
<path d="M124.303 0V-0.75H124.303L124.303 0ZM159.999 30.4902L160.749 30.4902V30.4902H159.999ZM124.303 60.9805L124.303 61.7305H124.303V60.9805ZM117.304 60.3916L117.429 59.6522L117.099 59.5961L116.837 59.8047L117.304 60.3916ZM109.974 66.2246L110.441 66.8116L110.441 66.8115L109.974 66.2246ZM106.73 64.7441L107.48 64.7124L107.48 64.7124L106.73 64.7441ZM106.396 56.8701L107.146 56.8383L107.127 56.3954L106.73 56.1983L106.396 56.8701ZM88.6074 30.4902H87.8574V30.4902L88.6074 30.4902ZM124.303 0V0.75C143.718 0.75 159.249 14.1718 159.249 30.4902H159.999H160.749C160.749 13.1303 144.316 -0.75 124.303 -0.75V0ZM159.999 30.4902L159.249 30.4902C159.249 46.8086 143.718 60.2305 124.303 60.2305V60.9805V61.7305C144.316 61.7305 160.749 47.8501 160.749 30.4902L159.999 30.4902ZM124.303 60.9805L124.303 60.2305C121.95 60.2304 119.652 60.0296 117.429 59.6522L117.304 60.3916L117.178 61.131C119.482 61.5223 121.864 61.7304 124.303 61.7305L124.303 60.9805ZM117.304 60.3916L116.837 59.8047L109.507 65.6377L109.974 66.2246L110.441 66.8115L117.771 60.9785L117.304 60.3916ZM109.974 66.2246L109.507 65.6376C108.707 66.274 107.523 65.7335 107.48 64.7124L106.73 64.7441L105.981 64.7758C106.076 67.0226 108.681 68.2112 110.441 66.8116L109.974 66.2246ZM106.73 64.7441L107.48 64.7124L107.146 56.8383L106.396 56.8701L105.647 56.9019L105.981 64.7759L106.73 64.7441ZM106.396 56.8701L106.73 56.1983C96.296 51.0198 89.3575 41.4156 89.3574 30.4902L88.6074 30.4902L87.8574 30.4902C87.8575 42.0939 95.224 52.1623 106.063 57.5419L106.396 56.8701ZM88.6074 30.4902H89.3574C89.3574 14.1719 104.888 0.750166 124.303 0.75L124.303 0L124.303 -0.75C104.29 -0.749829 87.8574 13.1304 87.8574 30.4902H88.6074Z" fill="#0B5243" mask="url(#path-10-inside-1_18567_3317)"/>
<mask id="path-12-inside-2_18567_3317" fill="white">
<path d="M120.203 0C139.917 7.2667e-05 155.898 13.6511 155.898 30.4902C155.898 47.3293 139.917 60.9804 120.203 60.9805C117.808 60.9805 115.468 60.7768 113.205 60.3926L105.876 66.2246C104.596 67.2428 102.702 66.3781 102.633 64.7441L102.299 56.8711C91.661 51.5923 84.5079 41.7556 84.5078 30.4902C84.5078 13.6511 100.489 0 120.203 0Z"/>
</mask>
<path d="M120.203 0C139.917 7.2667e-05 155.898 13.6511 155.898 30.4902C155.898 47.3293 139.917 60.9804 120.203 60.9805C117.808 60.9805 115.468 60.7768 113.205 60.3926L105.876 66.2246C104.596 67.2428 102.702 66.3781 102.633 64.7441L102.299 56.8711C91.661 51.5923 84.5079 41.7556 84.5078 30.4902C84.5078 13.6511 100.489 0 120.203 0Z" fill="white"/>
<path d="M120.203 0L120.203 -0.75H120.203V0ZM155.898 30.4902L156.648 30.4902V30.4902H155.898ZM120.203 60.9805V61.7305H120.203L120.203 60.9805ZM113.205 60.3926L113.331 59.6532L113 59.5971L112.738 59.8057L113.205 60.3926ZM105.876 66.2246L106.343 66.8115L106.343 66.8115L105.876 66.2246ZM102.633 64.7441L103.382 64.7124L103.382 64.7124L102.633 64.7441ZM102.299 56.8711L103.048 56.8393L103.029 56.3963L102.632 56.1993L102.299 56.8711ZM84.5078 30.4902H83.7578V30.4902L84.5078 30.4902ZM120.203 0L120.203 0.75C139.618 0.750072 155.148 14.1718 155.148 30.4902H155.898H156.648C156.648 13.1304 140.216 -0.749926 120.203 -0.75L120.203 0ZM155.898 30.4902L155.148 30.4902C155.148 46.8085 139.618 60.2304 120.203 60.2305L120.203 60.9805L120.203 61.7305C140.216 61.7304 156.648 47.85 156.648 30.4902L155.898 30.4902ZM120.203 60.9805V60.2305C117.851 60.2305 115.553 60.0304 113.331 59.6532L113.205 60.3926L113.08 61.132C115.384 61.5232 117.765 61.7305 120.203 61.7305V60.9805ZM113.205 60.3926L112.738 59.8057L105.409 65.6377L105.876 66.2246L106.343 66.8115L113.672 60.9795L113.205 60.3926ZM105.876 66.2246L105.409 65.6377C104.609 66.2741 103.425 65.7337 103.382 64.7124L102.633 64.7441L101.883 64.7758C101.979 67.0226 104.583 68.2116 106.343 66.8115L105.876 66.2246ZM102.633 64.7441L103.382 64.7124L103.048 56.8393L102.299 56.8711L101.55 56.9029L101.883 64.7759L102.633 64.7441ZM102.299 56.8711L102.632 56.1993C92.197 51.0211 85.2579 41.4164 85.2578 30.4902L84.5078 30.4902L83.7578 30.4902C83.7579 42.0948 91.125 52.1636 101.965 57.5429L102.299 56.8711ZM84.5078 30.4902H85.2578C85.2578 14.1718 100.788 0.75 120.203 0.75V0V-0.75C100.19 -0.75 83.7578 13.1303 83.7578 30.4902H84.5078Z" fill="#0B5243" mask="url(#path-12-inside-2_18567_3317)"/>
<path d="M106.686 19.5898L95.7734 30.5021L107.559 40.1049" stroke="#0B5243" stroke-width="3.0991" stroke-linecap="round" stroke-linejoin="round"/>
<path d="M133.312 40.1055L144.225 29.1932L132.439 19.5904" stroke="#0B5243" stroke-width="3.0991" stroke-linecap="round" stroke-linejoin="round"/>
<path d="M123.708 19.1562L114.979 40.1078" stroke="#0B5243" stroke-width="3.0991" stroke-linecap="round" stroke-linejoin="round"/>
</svg>
