<svg width="20" height="23" viewBox="0 0 20 23" fill="none" xmlns="http://www.w3.org/2000/svg">
<path fill-rule="evenodd" clip-rule="evenodd" d="M7.25181 2.39062C5.72066 2.39062 4.30583 3.21258 3.54026 4.54688L0.790974 9.33854C0.0254052 10.6728 0.0254039 12.3167 0.790974 13.651L3.54026 18.4427C4.30583 19.777 5.72066 20.599 7.25181 20.599H12.7504C14.2815 20.599 15.6963 19.777 16.4619 18.4427L19.2112 13.651C19.9768 12.3167 19.9768 10.6728 19.2112 9.33854L16.4619 4.54688C15.6963 3.21258 14.2815 2.39062 12.7504 2.39062H7.25181ZM12.7504 5.26562H9.31376C8.7639 5.26562 8.42033 5.86453 8.69566 6.34346C9.54519 7.82111 10.3967 9.29766 11.245 10.776C11.5002 11.2208 11.5002 11.7688 11.245 12.2135C10.3967 13.692 9.54519 15.1685 8.69566 16.6461C8.42033 17.125 8.7639 17.724 9.31376 17.724H12.7504C13.2608 17.724 13.7324 17.45 13.9876 17.0052L16.7369 12.2135C16.992 11.7688 16.992 11.2208 16.7369 10.776L13.9876 5.98437C13.7324 5.53961 13.2608 5.26562 12.7504 5.26562Z" fill="#0026BD"/>
</svg>
