<svg width="162" height="155" viewBox="0 0 162 155" fill="none" xmlns="http://www.w3.org/2000/svg">
<path d="M160.225 19.625C161 61.3322 160.559 115.082 161 138.218L31.3818 136.776C36.2063 112.505 35.2307 66.8727 33.9611 20.1457L160.225 19.625Z" fill="#83BAA0" stroke="#0B5243" stroke-width="0.75" stroke-linecap="round" stroke-linejoin="round"/>
<path d="M29.8589 133.279C35.2312 95.0959 33.8547 46.1259 33.4405 19.625H160.225C160.225 19.625 161.455 90.9572 159.223 104.254C156.283 121.73 134.994 112.291 134.994 112.291C134.994 112.291 133.257 134.881 120.387 134.881C107.517 134.881 29.8589 133.279 29.8589 133.279Z" fill="white" stroke="#0B5243" stroke-width="0.75" stroke-linejoin="round"/>
<path d="M160.399 44.8042H34.0282L33.6541 19.6517L160.118 19.625L160.399 44.8042Z" fill="#0CC79F" stroke="#0B5243" stroke-width="0.75" stroke-linecap="round" stroke-linejoin="round"/>
<path d="M52.5254 35.219C54.4518 35.219 56.0134 33.6589 56.0134 31.7345C56.0134 29.8101 54.4518 28.25 52.5254 28.25C50.599 28.25 49.0374 29.8101 49.0374 31.7345C49.0374 33.6589 50.599 35.219 52.5254 35.219Z" fill="white" stroke="#0B5243" stroke-width="0.75" stroke-linejoin="round"/>
<path d="M69.7507 35.219C71.6771 35.219 73.2387 33.6589 73.2387 31.7345C73.2387 29.8101 71.6771 28.25 69.7507 28.25C67.8243 28.25 66.2627 29.8101 66.2627 31.7345C66.2627 33.6589 67.8243 35.219 69.7507 35.219Z" fill="white" stroke="#0B5243" stroke-width="0.75" stroke-linejoin="round"/>
<path d="M123.126 35.219C125.053 35.219 126.614 33.6589 126.614 31.7345C126.614 29.8101 125.053 28.25 123.126 28.25C121.2 28.25 119.638 29.8101 119.638 31.7345C119.638 33.6589 121.2 35.219 123.126 35.219Z" fill="white" stroke="#0B5243" stroke-width="0.75" stroke-linejoin="round"/>
<path d="M140.353 35.219C142.28 35.219 143.841 33.6589 143.841 31.7345C143.841 29.8101 142.28 28.25 140.353 28.25C138.427 28.25 136.865 29.8101 136.865 31.7345C136.865 33.6589 138.427 35.219 140.353 35.219Z" fill="white" stroke="#0B5243" stroke-width="0.75" stroke-linejoin="round"/>
<path d="M158.623 106.723C156.097 121.008 137.801 133.531 122.152 134.892C129.649 132.903 134.487 123.651 134.982 112.303C147.183 116.295 156.043 115.761 158.623 106.736V106.723Z" fill="#CBEDE1" stroke="#0B5243" stroke-width="0.75" stroke-linecap="round" stroke-linejoin="round"/>
<path d="M103.922 111.434H102.212C101.196 111.434 100.381 110.579 100.434 109.565C101.103 97.9098 101.076 80.781 102.052 60.1143C102.052 59.3933 101.651 59.0195 100.862 59.0195C98.2294 59.2732 95.5699 59.3933 92.8838 59.3933C90.4248 59.3933 87.8856 59.2999 85.2529 59.113C84.4109 59.0596 83.6225 59.5803 83.4086 60.3946C82.9943 62.0101 82.7805 64.066 82.7805 66.6027C82.7805 67.3636 83.3017 67.9244 84.3441 68.3115C85.3865 68.6854 86.6427 68.8856 88.0994 68.8856C89.3289 68.8856 90.1441 69.1526 90.5183 69.6733C90.8925 70.194 91.093 70.9283 91.093 71.8761C91.4805 85.6539 91.1464 100.259 89.2487 110.019C89.0884 110.847 88.3533 111.434 87.5114 111.434H84.8787C83.422 111.434 82.2192 112.622 82.2192 114.091L81.8584 119.484C81.8584 120.94 83.0478 122.141 84.5178 122.141H103.749C105.205 122.141 106.408 120.953 106.408 119.484L106.582 114.091C106.582 112.635 105.393 111.434 103.922 111.434Z" fill="#031001"/>
<path d="M52.5245 28.9428C50.56 22.9484 51.1881 1 52.5245 1C53.8609 1 53.8609 19.6241 53.8609 19.6241" stroke="#0B5243" stroke-width="0.75" stroke-linecap="round" stroke-linejoin="round"/>
<path d="M69.7108 28.9428C67.7463 22.9484 68.3744 1 69.7108 1C71.0472 1 71.0472 19.6241 71.0472 19.6241" stroke="#0B5243" stroke-width="0.75" stroke-linecap="round" stroke-linejoin="round"/>
<path d="M123.086 28.9428C121.122 22.9484 121.75 1 123.086 1C124.423 1 124.423 19.6241 124.423 19.6241" stroke="#0B5243" stroke-width="0.75" stroke-linecap="round" stroke-linejoin="round"/>
<path d="M140.354 28.9428C138.389 22.9484 139.017 1 140.354 1C141.69 1 141.69 19.6241 141.69 19.6241" stroke="#0B5243" stroke-width="0.75" stroke-linecap="round" stroke-linejoin="round"/>
<path d="M35.908 154.46C52.6997 154.46 66.3121 140.848 66.3121 124.056C66.3121 107.265 52.6997 93.6523 35.908 93.6523C19.1163 93.6523 5.50391 107.265 5.50391 124.056C5.50391 140.848 19.1163 154.46 35.908 154.46Z" fill="#0B5243"/>
<path d="M31.4041 154.46C48.1958 154.46 61.8082 140.848 61.8082 124.056C61.8082 107.265 48.1958 93.6523 31.4041 93.6523C14.6124 93.6523 1 107.265 1 124.056C1 140.848 14.6124 154.46 31.4041 154.46Z" fill="#CBEDE1" stroke="#0B5243" stroke-width="0.447988" stroke-miterlimit="10"/>
<path d="M26.8703 100.41V117.949H13.387V128.782H26.8703V146.579H37.7606V128.782H53.9258V117.949H37.7606V100.41H26.8703Z" fill="#0B5243" stroke="#0B5243" stroke-width="0.556034" stroke-linejoin="round"/>
<path d="M24.6185 100.41V117.949H8.88306V128.782H24.6185V146.579H35.5089V128.782H51.674V117.949H35.5089V100.41H24.6185Z" fill="#FBF9ED" stroke="#0B5243" stroke-width="0.556034" stroke-linejoin="round"/>
</svg>
