<svg width="167" height="99" viewBox="0 0 167 99" fill="none" xmlns="http://www.w3.org/2000/svg">
<path d="M150.085 1H20.929C12.1392 1 5.01367 8.12553 5.01367 16.9153V82.002C5.01367 90.7918 12.1392 97.9173 20.929 97.9173H150.085C158.875 97.9173 166.001 90.7918 166.001 82.002V16.9153C166.001 8.12553 158.875 1 150.085 1Z" fill="#0B5243" stroke="#0B5243"/>
<path d="M146.072 1H16.9153C8.12553 1 1 8.12553 1 16.9153V82.002C1 90.7918 8.12553 97.9173 16.9153 97.9173H146.072C154.862 97.9173 161.987 90.7918 161.987 82.002V16.9153C161.987 8.12553 154.862 1 146.072 1Z" fill="white" stroke="#0B5243" stroke-width="0.75" stroke-linecap="round" stroke-linejoin="round"/>
<path d="M140.56 34.6738H64.2703C63.0067 34.6738 61.9824 35.6981 61.9824 36.9617C61.9824 38.2253 63.0067 39.2496 64.2703 39.2496H140.56C141.824 39.2496 142.848 38.2253 142.848 36.9617C142.848 35.6981 141.824 34.6738 140.56 34.6738Z" fill="#83BAA0"/>
<path d="M137.51 46.1758H64.2703C63.0067 46.1758 61.9824 47.2001 61.9824 48.4637C61.9824 49.7272 63.0067 50.7515 64.2703 50.7515H137.51C138.773 50.7515 139.798 49.7272 139.798 48.4637C139.798 47.2001 138.773 46.1758 137.51 46.1758Z" fill="#83BAA0"/>
<path d="M133.034 58.6152H64.2703C63.0067 58.6152 61.9824 59.6396 61.9824 60.9031C61.9824 62.1667 63.0067 63.191 64.2703 63.191H133.034C134.297 63.191 135.322 62.1667 135.322 60.9031C135.322 59.6396 134.297 58.6152 133.034 58.6152Z" fill="#83BAA0"/>
<path d="M138.799 71.0527H64.2703C63.0067 71.0527 61.9824 72.0771 61.9824 73.3406C61.9824 74.6042 63.0067 75.6285 64.2703 75.6285H138.799C140.063 75.6285 141.087 74.6042 141.087 73.3406C141.087 72.0771 140.063 71.0527 138.799 71.0527Z" fill="#83BAA0"/>
<path d="M32.2772 48.2731C41.9044 48.2731 49.7087 40.4688 49.7087 30.8417C49.7087 21.2145 41.9044 13.4102 32.2772 13.4102C22.6501 13.4102 14.8457 21.2145 14.8457 30.8417C14.8457 40.4688 22.6501 48.2731 32.2772 48.2731Z" fill="#CBEDE1"/>
<path d="M32.2786 48.2736C37.8893 48.2736 42.8646 45.6135 46.0513 41.5008C43.5455 36.4166 38.3251 32.9121 32.2786 32.9121C26.232 32.9121 21.0116 36.4166 18.5059 41.5008C21.6926 45.6135 26.6678 48.2736 32.2786 48.2736Z" fill="#088F73"/>
<path d="M32.2771 30.8414C35.416 30.8414 37.9605 28.2969 37.9605 25.158C37.9605 22.0192 35.416 19.4746 32.2771 19.4746C29.1383 19.4746 26.5938 22.0192 26.5938 25.158C26.5938 28.2969 29.1383 30.8414 32.2771 30.8414Z" fill="#088F73"/>
<path d="M68.9365 14.6909L70.38 17.6234C70.4799 17.8231 70.6615 17.9593 70.8794 17.9866L74.1115 18.4587C74.6562 18.5404 74.8741 19.2122 74.4837 19.6026L72.1413 21.8814C71.987 22.0357 71.9144 22.2536 71.9507 22.4715L72.5045 25.6945C72.5953 26.2393 72.0233 26.6569 71.533 26.4027L68.6369 24.8774C68.4462 24.7776 68.2102 24.7776 68.0104 24.8774L65.1143 26.4027C64.624 26.6569 64.052 26.2484 64.1428 25.6945L64.6966 22.4715C64.7329 22.2536 64.6603 22.0357 64.506 21.8814L62.1636 19.6026C61.7641 19.2122 61.982 18.5404 62.5359 18.4587L65.7679 17.9866C65.9858 17.9593 66.1765 17.8141 66.2673 17.6234L67.7108 14.6909C67.956 14.1916 68.6641 14.1916 68.9092 14.6909H68.9365Z" fill="#FDD500"/>
<path d="M84.2802 14.6909L85.7238 17.6234C85.8236 17.8231 86.0052 17.9593 86.2231 17.9866L89.4552 18.4587C89.9999 18.5404 90.2178 19.2122 89.8274 19.6026L87.4851 21.8814C87.3307 22.0357 87.2581 22.2536 87.2944 22.4715L87.8482 25.6945C87.939 26.2393 87.3671 26.6569 86.8768 26.4027L83.9806 24.8774C83.79 24.7776 83.5539 24.7776 83.3542 24.8774L80.458 26.4027C79.9678 26.6569 79.3958 26.2484 79.4866 25.6945L80.0404 22.4715C80.0767 22.2536 80.0041 22.0357 79.8497 21.8814L77.5074 19.6026C77.1079 19.2122 77.3258 18.5404 77.8796 18.4587L81.1117 17.9866C81.3296 17.9593 81.5202 17.8141 81.611 17.6234L83.0546 14.6909C83.2997 14.1916 84.0079 14.1916 84.253 14.6909H84.2802Z" fill="#FDD500"/>
<path d="M99.5068 14.6909L100.95 17.6234C101.05 17.8231 101.232 17.9593 101.45 17.9866L104.682 18.4587C105.227 18.5404 105.444 19.2122 105.054 19.6026L102.712 21.8814C102.557 22.0357 102.485 22.2536 102.521 22.4715L103.075 25.6945C103.166 26.2393 102.594 26.6569 102.103 26.4027L99.2072 24.8774C99.0165 24.7776 98.7805 24.7776 98.5807 24.8774L95.6846 26.4027C95.1943 26.6569 94.6223 26.2484 94.7131 25.6945L95.2669 22.4715C95.3033 22.2536 95.2306 22.0357 95.0763 21.8814L92.7339 19.6026C92.3345 19.2122 92.5524 18.5404 93.1062 18.4587L96.3383 17.9866C96.5562 17.9593 96.7468 17.8141 96.8376 17.6234L98.2811 14.6909C98.5263 14.1916 99.2344 14.1916 99.4796 14.6909H99.5068Z" fill="#FDD500"/>
<path d="M115.013 14.6909L116.456 17.6234C116.556 17.8231 116.738 17.9593 116.956 17.9866L120.188 18.4587C120.732 18.5404 120.95 19.2122 120.56 19.6026L118.218 21.8814C118.063 22.0357 117.991 22.2536 118.027 22.4715L118.581 25.6945C118.671 26.2393 118.099 26.6569 117.609 26.4027L114.713 24.8774C114.522 24.7776 114.286 24.7776 114.087 24.8774L111.19 26.4027C110.7 26.6569 110.128 26.2484 110.219 25.6945L110.773 22.4715C110.809 22.2536 110.736 22.0357 110.582 21.8814L108.24 19.6026C107.84 19.2122 108.058 18.5404 108.612 18.4587L111.844 17.9866C112.062 17.9593 112.253 17.8141 112.343 17.6234L113.787 14.6909C114.032 14.1916 114.74 14.1916 114.985 14.6909H115.013Z" fill="#FDD500"/>
<path d="M130.919 14.6909L132.362 17.6234C132.462 17.8231 132.644 17.9593 132.862 17.9866L136.094 18.4587C136.639 18.5404 136.857 19.2122 136.466 19.6026L134.124 21.8814C133.969 22.0357 133.897 22.2536 133.933 22.4715L134.487 25.6945C134.578 26.2393 134.006 26.6569 133.515 26.4027L130.619 24.8774C130.429 24.7776 130.193 24.7776 129.993 24.8774L127.097 26.4027C126.606 26.6569 126.034 26.2484 126.125 25.6945L126.679 22.4715C126.715 22.2536 126.643 22.0357 126.488 21.8814L124.146 19.6026C123.747 19.2122 123.964 18.5404 124.518 18.4587L127.75 17.9866C127.968 17.9593 128.159 17.8141 128.25 17.6234L129.693 14.6909C129.938 14.1916 130.647 14.1916 130.892 14.6909H130.919Z" fill="#FDD500"/>
<path d="M46.0045 54.9004H18.559C16.5082 54.9004 14.8457 56.5629 14.8457 58.6137C14.8457 60.6644 16.5082 62.3269 18.559 62.3269H46.0045C48.0553 62.3269 49.7178 60.6644 49.7178 58.6137C49.7178 56.5629 48.0553 54.9004 46.0045 54.9004Z" fill="#0B5243"/>
<path d="M35.364 67.6211H18.559C16.5082 67.6211 14.8457 69.2836 14.8457 71.3344C14.8457 73.3852 16.5082 75.0476 18.559 75.0476H35.364C37.4148 75.0476 39.0773 73.3852 39.0773 71.3344C39.0773 69.2836 37.4148 67.6211 35.364 67.6211Z" fill="#0B5243"/>
</svg>
