<svg width="184" height="109" viewBox="0 0 184 109" fill="none" xmlns="http://www.w3.org/2000/svg">
<path d="M165.21 1H22.9499C13.2684 1 5.41992 8.84845 5.41992 18.53V90.22C5.41992 99.9016 13.2684 107.75 22.9499 107.75H165.21C174.891 107.75 182.74 99.9016 182.74 90.22V18.53C182.74 8.84845 174.891 1 165.21 1Z" fill="#6B6B6B" stroke="#6B6B6B"/>
<path d="M160.79 1H18.53C8.84845 1 1 8.84845 1 18.53V90.22C1 99.9016 8.84845 107.75 18.53 107.75H160.79C170.472 107.75 178.32 99.9016 178.32 90.22V18.53C178.32 8.84845 170.472 1 160.79 1Z" fill="white" stroke="#6B6B6B" stroke-width="0.75" stroke-linecap="round" stroke-linejoin="round"/>
<path d="M154.72 38.0898H70.6899C69.2982 38.0898 68.1699 39.2181 68.1699 40.6098C68.1699 42.0016 69.2982 43.1298 70.6899 43.1298H154.72C156.112 43.1298 157.24 42.0016 157.24 40.6098C157.24 39.2181 156.112 38.0898 154.72 38.0898Z" fill="#C1C1C1"/>
<path d="M151.36 50.7617H70.6899C69.2982 50.7617 68.1699 51.89 68.1699 53.2817C68.1699 54.6735 69.2982 55.8017 70.6899 55.8017H151.36C152.752 55.8017 153.88 54.6735 153.88 53.2817C153.88 51.89 152.752 50.7617 151.36 50.7617Z" fill="#C1C1C1"/>
<path d="M146.43 64.4609H70.6899C69.2982 64.4609 68.1699 65.5892 68.1699 66.9809C68.1699 68.3727 69.2982 69.5009 70.6899 69.5009H146.43C147.822 69.5009 148.95 68.3727 148.95 66.9809C148.95 65.5892 147.822 64.4609 146.43 64.4609Z" fill="#C1C1C1"/>
<path d="M152.78 78.1602H70.6899C69.2982 78.1602 68.1699 79.2884 68.1699 80.6802C68.1699 82.0719 69.2982 83.2002 70.6899 83.2002H152.78C154.172 83.2002 155.3 82.0719 155.3 80.6802C155.3 79.2884 154.172 78.1602 152.78 78.1602Z" fill="#C1C1C1"/>
<path d="M35.45 53.0719C46.0539 53.0719 54.65 44.4757 54.65 33.8719C54.65 23.268 46.0539 14.6719 35.45 14.6719C24.8461 14.6719 16.25 23.268 16.25 33.8719C16.25 44.4757 24.8461 53.0719 35.45 53.0719Z" fill="#6B6B6B" stroke="#6B6B6B"/>
<path d="M35.4513 53.0684C41.6313 53.0684 47.1112 50.1384 50.6213 45.6084C47.8612 40.0084 42.1113 36.1484 35.4513 36.1484C28.7913 36.1484 23.0412 40.0084 20.2812 45.6084C23.7912 50.1384 29.2713 53.0684 35.4513 53.0684Z" fill="white"/>
<path d="M35.4514 33.8716C38.9087 33.8716 41.7114 31.0689 41.7114 27.6116C41.7114 24.1543 38.9087 21.3516 35.4514 21.3516C31.9941 21.3516 29.1914 24.1543 29.1914 27.6116C29.1914 31.0689 31.9941 33.8716 35.4514 33.8716Z" fill="white"/>
<path d="M75.8299 16.0805L77.4199 19.3105C77.5299 19.5305 77.7299 19.6805 77.9699 19.7105L81.5299 20.2305C82.1299 20.3205 82.3699 21.0605 81.9399 21.4905L79.3599 24.0005C79.1899 24.1705 79.1099 24.4105 79.1499 24.6505L79.7599 28.2005C79.8599 28.8005 79.2299 29.2605 78.6899 28.9805L75.4999 27.3005C75.2899 27.1905 75.0299 27.1905 74.8099 27.3005L71.6199 28.9805C71.0799 29.2605 70.4499 28.8105 70.5499 28.2005L71.1599 24.6505C71.1999 24.4105 71.1199 24.1705 70.9499 24.0005L68.3699 21.4905C67.9299 21.0605 68.1699 20.3205 68.7799 20.2305L72.3399 19.7105C72.5799 19.6805 72.7899 19.5205 72.8899 19.3105L74.4799 16.0805C74.7499 15.5305 75.5299 15.5305 75.7999 16.0805H75.8299Z" fill="#6B6B6B"/>
<path d="M92.7303 16.0805L94.3203 19.3105C94.4303 19.5305 94.6303 19.6805 94.8703 19.7105L98.4303 20.2305C99.0303 20.3205 99.2703 21.0605 98.8403 21.4905L96.2603 24.0005C96.0903 24.1705 96.0103 24.4105 96.0503 24.6505L96.6603 28.2005C96.7603 28.8005 96.1303 29.2605 95.5903 28.9805L92.4003 27.3005C92.1903 27.1905 91.9303 27.1905 91.7103 27.3005L88.5203 28.9805C87.9803 29.2605 87.3503 28.8105 87.4503 28.2005L88.0603 24.6505C88.1003 24.4105 88.0203 24.1705 87.8503 24.0005L85.2703 21.4905C84.8303 21.0605 85.0703 20.3205 85.6803 20.2305L89.2403 19.7105C89.4803 19.6805 89.6903 19.5205 89.7903 19.3105L91.3803 16.0805C91.6503 15.5305 92.4303 15.5305 92.7003 16.0805H92.7303Z" fill="#6B6B6B"/>
<path d="M109.5 16.0805L111.09 19.3105C111.2 19.5305 111.4 19.6805 111.64 19.7105L115.2 20.2305C115.8 20.3205 116.04 21.0605 115.61 21.4905L113.03 24.0005C112.86 24.1705 112.78 24.4105 112.82 24.6505L113.43 28.2005C113.53 28.8005 112.9 29.2605 112.36 28.9805L109.17 27.3005C108.96 27.1905 108.7 27.1905 108.48 27.3005L105.29 28.9805C104.75 29.2605 104.12 28.8105 104.22 28.2005L104.83 24.6505C104.87 24.4105 104.79 24.1705 104.62 24.0005L102.04 21.4905C101.6 21.0605 101.84 20.3205 102.45 20.2305L106.01 19.7105C106.25 19.6805 106.46 19.5205 106.56 19.3105L108.15 16.0805C108.42 15.5305 109.2 15.5305 109.47 16.0805H109.5Z" fill="#6B6B6B"/>
<path d="M126.58 16.0805L128.17 19.3105C128.28 19.5305 128.48 19.6805 128.72 19.7105L132.28 20.2305C132.88 20.3205 133.12 21.0605 132.69 21.4905L130.11 24.0005C129.94 24.1705 129.86 24.4105 129.9 24.6505L130.51 28.2005C130.61 28.8005 129.98 29.2605 129.44 28.9805L126.25 27.3005C126.04 27.1905 125.78 27.1905 125.56 27.3005L122.37 28.9805C121.83 29.2605 121.2 28.8105 121.3 28.2005L121.91 24.6505C121.95 24.4105 121.87 24.1705 121.7 24.0005L119.12 21.4905C118.68 21.0605 118.92 20.3205 119.53 20.2305L123.09 19.7105C123.33 19.6805 123.54 19.5205 123.64 19.3105L125.23 16.0805C125.5 15.5305 126.28 15.5305 126.55 16.0805H126.58Z" fill="#6B6B6B"/>
<path d="M144.099 16.0805L145.689 19.3105C145.799 19.5305 145.999 19.6805 146.239 19.7105L149.799 20.2305C150.399 20.3205 150.639 21.0605 150.209 21.4905L147.629 24.0005C147.459 24.1705 147.379 24.4105 147.419 24.6505L148.029 28.2005C148.129 28.8005 147.499 29.2605 146.959 28.9805L143.769 27.3005C143.559 27.1905 143.299 27.1905 143.079 27.3005L139.889 28.9805C139.349 29.2605 138.719 28.8105 138.819 28.2005L139.429 24.6505C139.469 24.4105 139.389 24.1705 139.219 24.0005L136.639 21.4905C136.199 21.0605 136.439 20.3205 137.049 20.2305L140.609 19.7105C140.849 19.6805 141.059 19.5205 141.159 19.3105L142.749 16.0805C143.019 15.5305 143.799 15.5305 144.069 16.0805H144.099Z" fill="#6B6B6B"/>
<path d="M50.57 60.3711H20.34C18.0812 60.3711 16.25 62.2022 16.25 64.4611C16.25 66.7199 18.0812 68.5511 20.34 68.5511H50.57C52.8288 68.5511 54.66 66.7199 54.66 64.4611C54.66 62.2022 52.8288 60.3711 50.57 60.3711Z" fill="#6B6B6B"/>
<path d="M38.85 74.3789H20.34C18.0812 74.3789 16.25 76.2101 16.25 78.4689C16.25 80.7278 18.0812 82.5589 20.34 82.5589H38.85C41.1088 82.5589 42.94 80.7278 42.94 78.4689C42.94 76.2101 41.1088 74.3789 38.85 74.3789Z" fill="#6B6B6B"/>
</svg>
