<svg width="165" height="141" viewBox="0 0 165 141" fill="none" xmlns="http://www.w3.org/2000/svg">
<path d="M13.451 78.006C1.03579 78.006 -2.81005 61.8373 2.01745 50.7271C6.03652 41.4764 17.7819 35.1013 28.1645 38.4505C24.7806 20.0875 46.4466 10.19 59.4624 21.6466C62.1187 12.3728 76.2432 -2.96439 99.5145 0.500325C123.086 4.01124 128.595 25.3308 128.595 32.8377C139.255 28.0564 155.054 32.8839 161.498 44.7332C167.515 55.7972 165.956 74.2988 155.435 77.9945H13.451V78.006Z" fill="#CBEDE1"/>
<path d="M138.907 131.656H29.706C27.3313 131.656 25.4062 133.725 25.4062 136.276C25.4062 138.827 27.3313 140.895 29.706 140.895H138.907C141.282 140.895 143.207 138.827 143.207 136.276C143.207 133.725 141.282 131.656 138.907 131.656Z" fill="#CBEDE1"/>
<path d="M88.0937 131.656H29.7033C27.3301 131.656 25.4062 133.725 25.4062 136.276C25.4062 138.827 27.3301 140.895 29.7033 140.895H88.0937C90.4669 140.895 92.3907 138.827 92.3907 136.276C92.3907 133.725 90.4669 131.656 88.0937 131.656Z" fill="#0B5243"/>
<path d="M95.0111 116.641L81.4591 116.641L82.637 67.0108L71.9023 67.0108C75.0353 57.9397 81.957 47.0836 88.6237 40.4169C94.8047 47.8729 100.136 56.7254 104.677 66.8529L93.6389 66.8529L95.0111 116.641Z" fill="#0B5243" stroke="#0B5243" stroke-width="0.75" stroke-linecap="round" stroke-linejoin="round"/>
<path d="M92.4017 116.641L78.8498 116.641L80.0277 67.0108L69.293 67.0108C72.4259 57.9397 79.3476 47.0836 86.0143 40.4169C92.1953 47.8729 97.5262 56.7254 102.068 66.8529L91.0295 66.8529L92.4017 116.641Z" fill="white" stroke="#0B5243" stroke-width="0.75" stroke-linecap="round" stroke-linejoin="round"/>
</svg>
