<svg width="166" height="116" viewBox="0 0 166 116" fill="none" xmlns="http://www.w3.org/2000/svg">
<path d="M148.534 115.54L165.891 30.1228C166.56 26.8423 164.06 23.7734 160.716 23.7734H154.924C152.671 43.7387 150.224 72.4697 147.742 103.017L148.517 115.24V115.54H148.534Z" fill="black"/>
<path d="M147.866 105.253L148.535 1H11.6348L12.8318 104.283L147.866 105.253Z" fill="white" stroke="black" stroke-width="0.75" stroke-linecap="round" stroke-linejoin="round"/>
<path d="M147.85 104.761C150.631 66.0826 154.187 27.4571 157.267 3.52344H148.536C147.832 36.6461 148.061 71.3561 147.85 104.761Z" fill="#C1C1C1" stroke="black" stroke-width="0.75" stroke-linecap="round" stroke-linejoin="round"/>
<path d="M7.26957 115.536H148.518L142.286 17.632C142.093 14.6866 139.593 12.4466 136.653 12.623L106.693 14.2633C99.9153 14.6337 93.6134 17.8965 89.371 23.223L85.868 27.6323L7.63925 28.9374C3.74893 29.008 0.721163 32.3414 1.02042 36.2392L7.25197 115.554L7.26957 115.536Z" fill="#E9E9E9"/>
<path d="M7.25203 115.445H147.902L141.705 17.9642C141.512 15.0364 139.012 12.8141 136.09 12.9728L106.253 14.5955C99.4929 14.9658 93.2262 18.2111 89.019 23.5199L85.5336 27.9116L7.6393 29.2167C3.76659 29.2872 0.756429 32.603 1.05568 36.4832L7.26962 115.445H7.25203Z" stroke="black" stroke-width="0.75" stroke-linecap="round" stroke-linejoin="round"/>
</svg>
