<svg width="166" height="203" viewBox="0 0 166 203" fill="none" xmlns="http://www.w3.org/2000/svg">
<path d="M153.181 9.5H33.2719C26.1923 9.5 20.4531 15.216 20.4531 22.2671V189.347C20.4531 196.398 26.1923 202.115 33.2719 202.115H153.181C160.26 202.115 165.999 196.398 165.999 189.347V22.2671C165.999 15.216 160.26 9.5 153.181 9.5Z" fill="#CBEDE1"/>
<path d="M140.659 1H13.7944C6.72825 1 1 6.70521 1 13.7429V176.778C1 183.815 6.72825 189.52 13.7944 189.52H140.659C147.725 189.52 153.453 183.815 153.453 176.778V13.7429C153.453 6.70521 147.725 1 140.659 1Z" fill="white" stroke="#0B5243" stroke-width="0.75" stroke-miterlimit="10"/>
<path d="M61.8898 14.1875H16.2109C13.4689 14.1875 11.2461 16.4014 11.2461 19.1323C11.2461 21.8633 13.4689 24.0772 16.2109 24.0772H61.8898C64.6318 24.0772 66.8547 21.8633 66.8547 19.1323C66.8547 16.4014 64.6318 14.1875 61.8898 14.1875Z" fill="#0B5243"/>
<path d="M135.766 35.4062H18.6859C14.7841 35.4062 11.6211 38.5566 11.6211 42.4427V166.995C11.6211 170.881 14.7841 174.031 18.6859 174.031H135.766C139.668 174.031 142.831 170.881 142.831 166.995V42.4427C142.831 38.5566 139.668 35.4062 135.766 35.4062Z" fill="#CBEDE1"/>
<path d="M47.9524 124.906H27.7168C24.9748 124.906 22.752 127.12 22.752 129.851C22.752 132.582 24.9748 134.796 27.7168 134.796H47.9524C50.6945 134.796 52.9173 132.582 52.9173 129.851C52.9173 127.12 50.6945 124.906 47.9524 124.906Z" fill="#0B5243"/>
<path d="M112.362 142.984H25.3254C23.9041 142.984 22.752 144.129 22.752 145.541C22.752 146.954 23.9041 148.098 25.3254 148.098H112.362C113.783 148.098 114.935 146.954 114.935 145.541C114.935 144.129 113.783 142.984 112.362 142.984Z" fill="#83BAA0"/>
<path d="M112.362 155.703H25.3254C23.9041 155.703 22.752 156.848 22.752 158.26C22.752 159.672 23.9041 160.817 25.3254 160.817H112.362C113.783 160.817 114.935 159.672 114.935 158.26C114.935 156.848 113.783 155.703 112.362 155.703Z" fill="#83BAA0"/>
<path d="M119.209 100.331C119.209 88.434 108.697 60.3125 93.4263 60.3125C79.3936 60.3125 68.7963 85.073 68.7963 85.073C68.7963 85.073 63.9893 73.3456 55.0307 73.3456C43.2802 73.3456 36.6523 92.4842 36.6523 100.343H119.209V100.331Z" fill="#0CC79F"/>
<path d="M58.3198 64.3907C63.3278 64.3907 67.3876 60.3472 67.3876 55.3594C67.3876 50.3716 63.3278 46.3281 58.3198 46.3281C53.3117 46.3281 49.252 50.3716 49.252 55.3594C49.252 60.3472 53.3117 64.3907 58.3198 64.3907Z" fill="#FBF9ED"/>
</svg>
