<svg width="176" height="124" viewBox="0 0 176 124" fill="none" xmlns="http://www.w3.org/2000/svg">
<g opacity="0.8">
<path d="M169.13 1H14.653C10.8589 1 7.7832 4.09752 7.7832 7.91851V116.109C7.7832 119.93 10.8589 123.027 14.653 123.027H169.13C172.924 123.027 176 119.93 176 116.109V7.91851C176 4.09752 172.924 1 169.13 1Z" fill="#0B5243"/>
<path d="M167.527 1H13.0494C9.25538 1 6.17969 4.09752 6.17969 7.91851V116.109C6.17969 119.93 9.25538 123.027 13.0494 123.027H167.527C171.321 123.027 174.397 119.93 174.397 116.109V7.91851C174.397 4.09752 171.321 1 167.527 1Z" fill="white" stroke="#0B5243" stroke-width="0.75" stroke-miterlimit="10"/>
<path d="M165.561 18.1719H126.851C124.565 18.1719 122.713 20.0378 122.713 22.3396V78.7572C122.713 81.0589 124.565 82.9249 126.851 82.9249H165.561C167.847 82.9249 169.7 81.0589 169.7 78.7572V22.3396C169.7 20.0378 167.847 18.1719 165.561 18.1719Z" fill="#CBEDE1"/>
<path d="M160.775 15.3945H119.819C117.537 15.3945 115.688 17.2569 115.688 19.5543V72.7751C115.688 75.0725 117.537 76.9349 119.819 76.9349H160.775C163.056 76.9349 164.905 75.0725 164.905 72.7751V19.5543C164.905 17.2569 163.056 15.3945 160.775 15.3945Z" fill="white" stroke="#0B5243" stroke-width="0.75" stroke-miterlimit="10"/>
<path d="M51.891 20.1406H13.1805C10.895 20.1406 9.04224 22.0066 9.04224 24.3083V114.233C9.04224 116.535 10.895 118.401 13.1805 118.401H51.891C54.1765 118.401 56.0293 116.535 56.0293 114.233V24.3083C56.0293 22.0066 54.1765 20.1406 51.891 20.1406Z" fill="#CBEDE1"/>
<path d="M107.506 18.1719H68.7955C66.51 18.1719 64.6572 20.0378 64.6572 22.3396V57.7293C64.6572 60.0311 66.51 61.897 68.7955 61.897H107.506C109.792 61.897 111.644 60.0311 111.644 57.7293V22.3396C111.644 20.0378 109.792 18.1719 107.506 18.1719Z" fill="#CBEDE1"/>
<path d="M14.649 1H169.13C172.92 1 176 4.09813 176 7.91851V11.6639H7.7832V7.91851C7.7832 4.09813 10.8595 1 14.649 1Z" fill="#0B5243"/>
<path d="M13.0494 1H167.531C171.32 1 174.4 4.09813 174.4 7.91851V11.6639H6.17969V7.91851C6.17969 4.09813 9.25991 1 13.0494 1Z" fill="#CBEDE1" stroke="#0B5243" stroke-width="0.75" stroke-miterlimit="10"/>
<path d="M14.4858 8.7676C15.6891 8.7676 16.6647 7.78516 16.6647 6.57325C16.6647 5.36135 15.6891 4.37891 14.4858 4.37891C13.2824 4.37891 12.3069 5.36135 12.3069 6.57325C12.3069 7.78516 13.2824 8.7676 14.4858 8.7676Z" fill="#FBF9ED" stroke="#0B5243" stroke-width="0.75" stroke-miterlimit="10"/>
<path d="M21.0226 8.7676C22.226 8.7676 23.2015 7.78516 23.2015 6.57325C23.2015 5.36135 22.226 4.37891 21.0226 4.37891C19.8193 4.37891 18.8438 5.36135 18.8438 6.57325C18.8438 7.78516 19.8193 8.7676 21.0226 8.7676Z" fill="#FBF9ED" stroke="#0B5243" stroke-width="0.75" stroke-miterlimit="10"/>
<path d="M27.5571 8.7676C28.7604 8.7676 29.7359 7.78516 29.7359 6.57325C29.7359 5.36135 28.7604 4.37891 27.5571 4.37891C26.3537 4.37891 25.3782 5.36135 25.3782 6.57325C25.3782 7.78516 26.3537 8.7676 27.5571 8.7676Z" fill="#FBF9ED" stroke="#0B5243" stroke-width="0.75" stroke-miterlimit="10"/>
<path d="M103.345 15.7188H62.4044C60.1189 15.7188 58.2661 17.5847 58.2661 19.8864V52.6359C58.2661 54.9376 60.1189 56.8036 62.4044 56.8036H103.345C105.63 56.8036 107.483 54.9376 107.483 52.6359V19.8864C107.483 17.5847 105.63 15.7188 103.345 15.7188Z" fill="white" stroke="#0B5243" stroke-width="0.75" stroke-miterlimit="10"/>
<path d="M101.88 27.4609H64.083C62.8234 27.4609 61.8022 28.4893 61.8022 29.7579V47.656C61.8022 48.9246 62.8234 49.953 64.083 49.953H101.88C103.14 49.953 104.161 48.9246 104.161 47.656V29.7579C104.161 28.4893 103.14 27.4609 101.88 27.4609Z" fill="#CBEDE1"/>
<path d="M46.0786 15.957H5.13831C2.85278 15.957 1 17.823 1 20.1247V110.05C1 112.351 2.85278 114.217 5.13831 114.217H46.0786C48.3641 114.217 50.2169 112.351 50.2169 110.05V20.1247C50.2169 17.823 48.3641 15.957 46.0786 15.957Z" fill="white" stroke="#0B5243" stroke-width="0.75" stroke-miterlimit="10"/>
<path d="M44.28 27.6992H6.48268C5.22304 27.6992 4.2019 28.7276 4.2019 29.9962V47.8943C4.2019 49.1629 5.22304 50.1913 6.48268 50.1913H44.28C45.5397 50.1913 46.5608 49.1629 46.5608 47.8943V29.9962C46.5608 28.7276 45.5397 27.6992 44.28 27.6992Z" fill="#CBEDE1"/>
<path d="M44.28 97.8711H6.48268C5.22304 97.8711 4.2019 98.8995 4.2019 100.168V108.014C4.2019 109.283 5.22304 110.311 6.48268 110.311H44.28C45.5397 110.311 46.5608 109.283 46.5608 108.014V100.168C46.5608 98.8995 45.5397 97.8711 44.28 97.8711Z" fill="#CBEDE1"/>
<path d="M44.28 53.7188H6.48268C5.22304 53.7188 4.2019 54.7471 4.2019 56.0157V91.6226C4.2019 92.8911 5.22304 93.9195 6.48268 93.9195H44.28C45.5397 93.9195 46.5608 92.8911 46.5608 91.6226V56.0157C46.5608 54.7471 45.5397 53.7188 44.28 53.7188Z" fill="#CBEDE1"/>
<path d="M6.47876 53.7188H44.28C45.538 53.7188 46.5608 54.7488 46.5608 56.0157V80.122H4.2019V56.0157C4.2019 54.7488 5.22473 53.7188 6.48268 53.7188H6.47876Z" fill="#CBEDE1"/>
<path d="M20.5514 20.2617H5.80472C4.91951 20.2617 4.2019 20.9844 4.2019 21.8759C4.2019 22.7674 4.91951 23.4901 5.80472 23.4901H20.5514C21.4366 23.4901 22.1542 22.7674 22.1542 21.8759C22.1542 20.9844 21.4366 20.2617 20.5514 20.2617Z" fill="#0B5243"/>
<path d="M15.9263 30.6758H9.39358C8.50837 30.6758 7.79077 31.3985 7.79077 32.29C7.79077 33.1815 8.50837 33.9042 9.39358 33.9042H15.9263C16.8115 33.9042 17.5291 33.1815 17.5291 32.29C17.5291 31.3985 16.8115 30.6758 15.9263 30.6758Z" fill="#0B5243"/>
<path d="M73.6951 30.4766H67.1624C66.2772 30.4766 65.5596 31.1993 65.5596 32.0908C65.5596 32.9822 66.2772 33.7049 67.1624 33.7049H73.6951C74.5803 33.7049 75.2979 32.9822 75.2979 32.0908C75.2979 31.1993 74.5803 30.4766 73.6951 30.4766Z" fill="#0B5243"/>
<path d="M15.9263 82.9102H9.39358C8.50837 82.9102 7.79077 83.6329 7.79077 84.5243C7.79077 85.4158 8.50837 86.1385 9.39358 86.1385H15.9263C16.8115 86.1385 17.5291 85.4158 17.5291 84.5243C17.5291 83.6329 16.8115 82.9102 15.9263 82.9102Z" fill="#0B5243"/>
<path d="M42.4452 36.5859H8.62157C8.16273 36.5859 7.79077 36.9597 7.79077 37.4207C7.79077 37.8817 8.16273 38.2554 8.62157 38.2554H42.4452C42.904 38.2554 43.276 37.8817 43.276 37.4207C43.276 36.9597 42.904 36.5859 42.4452 36.5859Z" fill="#83BAA0"/>
<path d="M42.4452 40.5273H8.62157C8.16273 40.5273 7.79077 40.9011 7.79077 41.3621C7.79077 41.8231 8.16273 42.1968 8.62157 42.1968H42.4452C42.904 42.1968 43.276 41.8231 43.276 41.3621C43.276 40.9011 42.904 40.5273 42.4452 40.5273Z" fill="#83BAA0"/>
<path d="M42.4449 101.086H11.8308C11.372 101.086 11 101.46 11 101.921C11 102.382 11.372 102.755 11.8308 102.755H42.4449C42.9037 102.755 43.2757 102.382 43.2757 101.921C43.2757 101.46 42.9037 101.086 42.4449 101.086Z" fill="#83BAA0"/>
<path d="M31.2487 105.027H11.8308C11.372 105.027 11 105.401 11 105.862C11 106.323 11.372 106.697 11.8308 106.697H31.2487C31.7076 106.697 32.0795 106.323 32.0795 105.862C32.0795 105.401 31.7076 105.027 31.2487 105.027Z" fill="#83BAA0"/>
<path d="M36.7198 88.418H8.62157C8.16273 88.418 7.79077 88.7917 7.79077 89.2527C7.79077 89.7137 8.16273 90.0874 8.62157 90.0874H36.7198C37.1786 90.0874 37.5506 89.7137 37.5506 89.2527C37.5506 88.7917 37.1786 88.418 36.7198 88.418Z" fill="#83BAA0"/>
<path d="M23.0123 44.5078H8.63402C8.17518 44.5078 7.80322 44.8815 7.80322 45.3425C7.80322 45.8035 8.17518 46.1773 8.63402 46.1773H23.0123C23.4711 46.1773 23.8431 45.8035 23.8431 45.3425C23.8431 44.8815 23.4711 44.5078 23.0123 44.5078Z" fill="#83BAA0"/>
<path d="M78.1517 20.0195H63.4051C62.5198 20.0195 61.8022 20.7422 61.8022 21.6337C61.8022 22.5252 62.5198 23.2479 63.4051 23.2479H78.1517C79.0369 23.2479 79.7545 22.5252 79.7545 21.6337C79.7545 20.7422 79.0369 20.0195 78.1517 20.0195Z" fill="#0B5243"/>
<path d="M135.345 19.6992H120.598C119.713 19.6992 118.996 20.4219 118.996 21.3134C118.996 22.2049 119.713 22.9276 120.598 22.9276H135.345C136.23 22.9276 136.948 22.2049 136.948 21.3134C136.948 20.4219 136.23 19.6992 135.345 19.6992Z" fill="#0B5243"/>
<path d="M38.9314 74.9033C38.9314 71.0198 35.5377 61.8398 30.6078 61.8398C26.0776 61.8398 22.6564 69.9226 22.6564 69.9226C22.6564 69.9226 21.1046 66.0944 18.2124 66.0944C14.419 66.0944 12.2793 72.3419 12.2793 74.9073H38.9314V74.9033Z" fill="#0CC79F"/>
<path d="M19.2782 63.1502C20.895 63.1502 22.2056 61.8303 22.2056 60.2021C22.2056 58.5738 20.895 57.2539 19.2782 57.2539C17.6615 57.2539 16.3508 58.5738 16.3508 60.2021C16.3508 61.8303 17.6615 63.1502 19.2782 63.1502Z" fill="#FBF9ED"/>
<path d="M159.197 26.6133H121.399C120.14 26.6133 119.119 27.6417 119.119 28.9102V69.5688C119.119 70.8374 120.14 71.8658 121.399 71.8658H159.197C160.456 71.8658 161.478 70.8374 161.478 69.5688V28.9102C161.478 27.6417 160.456 26.6133 159.197 26.6133Z" fill="#CBEDE1"/>
<path d="M130.848 55.8477H124.315C123.43 55.8477 122.713 56.5704 122.713 57.4618C122.713 58.3533 123.43 59.076 124.315 59.076H130.848C131.733 59.076 132.451 58.3533 132.451 57.4618C132.451 56.5704 131.733 55.8477 130.848 55.8477Z" fill="#0B5243"/>
<path d="M151.642 61.7578H123.543C123.085 61.7578 122.713 62.1315 122.713 62.5925C122.713 63.0535 123.085 63.4273 123.543 63.4273H151.642C152.1 63.4273 152.472 63.0535 152.472 62.5925C152.472 62.1315 152.1 61.7578 151.642 61.7578Z" fill="#83BAA0"/>
<path d="M151.642 65.9023H123.543C123.085 65.9023 122.713 66.2761 122.713 66.7371C122.713 67.1981 123.085 67.5718 123.543 67.5718H151.642C152.1 67.5718 152.472 67.1981 152.472 66.7371C152.472 66.2761 152.1 65.9023 151.642 65.9023Z" fill="#83BAA0"/>
<path d="M153.851 47.8018C153.851 43.9182 150.457 34.7383 145.527 34.7383C140.997 34.7383 137.576 42.8211 137.576 42.8211C137.576 42.8211 136.024 38.9928 133.132 38.9928C129.338 38.9928 127.199 45.2404 127.199 47.8057H153.851V47.8018Z" fill="#0CC79F"/>
<path d="M134.195 36.0916C135.812 36.0916 137.122 34.7717 137.122 33.1435C137.122 31.5152 135.812 30.1953 134.195 30.1953C132.578 30.1953 131.268 31.5152 131.268 33.1435C131.268 34.7717 132.578 36.0916 134.195 36.0916Z" fill="#FBF9ED"/>
<path d="M8.62157 102.759C9.08041 102.759 9.45237 102.385 9.45237 101.923C9.45237 101.461 9.08041 101.086 8.62157 101.086C8.16273 101.086 7.79077 101.461 7.79077 101.923C7.79077 102.385 8.16273 102.759 8.62157 102.759Z" fill="#83BAA0"/>
<path d="M8.62157 106.701C9.08041 106.701 9.45237 106.326 9.45237 105.864C9.45237 105.402 9.08041 105.027 8.62157 105.027C8.16273 105.027 7.79077 105.402 7.79077 105.864C7.79077 106.326 8.16273 106.701 8.62157 106.701Z" fill="#83BAA0"/>
<path d="M100.033 35.9023H69.4187C68.9598 35.9023 68.5879 36.2761 68.5879 36.7371C68.5879 37.1981 68.9598 37.5718 69.4187 37.5718H100.033C100.492 37.5718 100.864 37.1981 100.864 36.7371C100.864 36.2761 100.492 35.9023 100.033 35.9023Z" fill="#83BAA0"/>
<path d="M88.8366 39.8438H69.4187C68.9598 39.8438 68.5879 40.2175 68.5879 40.6785C68.5879 41.1395 68.9598 41.5132 69.4187 41.5132H88.8366C89.2954 41.5132 89.6674 41.1395 89.6674 40.6785C89.6674 40.2175 89.2954 39.8438 88.8366 39.8438Z" fill="#83BAA0"/>
<path d="M66.2095 37.5757C66.6683 37.5757 67.0403 37.2011 67.0403 36.739C67.0403 36.2769 66.6683 35.9023 66.2095 35.9023C65.7506 35.9023 65.3787 36.2769 65.3787 36.739C65.3787 37.2011 65.7506 37.5757 66.2095 37.5757Z" fill="#83BAA0"/>
<path d="M66.2095 41.5171C66.6683 41.5171 67.0403 41.1425 67.0403 40.6804C67.0403 40.2184 66.6683 39.8438 66.2095 39.8438C65.7506 39.8438 65.3787 40.2184 65.3787 40.6804C65.3787 41.1425 65.7506 41.5171 66.2095 41.5171Z" fill="#83BAA0"/>
<path d="M88.8366 43.625H69.4187C68.9598 43.625 68.5879 43.9987 68.5879 44.4597C68.5879 44.9207 68.9598 45.2944 69.4187 45.2944H88.8366C89.2954 45.2944 89.6674 44.9207 89.6674 44.4597C89.6674 43.9987 89.2954 43.625 88.8366 43.625Z" fill="#83BAA0"/>
<path d="M66.2095 45.2984C66.6683 45.2984 67.0403 44.9238 67.0403 44.4617C67.0403 43.9996 66.6683 43.625 66.2095 43.625C65.7506 43.625 65.3787 43.9996 65.3787 44.4617C65.3787 44.9238 65.7506 45.2984 66.2095 45.2984Z" fill="#83BAA0"/>
</g>
</svg>
