<svg width="156" height="226" viewBox="0 0 156 226" fill="none" xmlns="http://www.w3.org/2000/svg">
<path d="M140.973 1H19.0268C10.7277 1 4 6.55513 4 13.4077V213.592C4 220.445 10.7277 226 19.0268 226H140.973C149.272 226 156 220.445 156 213.592V13.4077C156 6.55513 149.272 1 140.973 1Z" fill="#0B5243"/>
<path d="M137.973 1H16.0268C7.72775 1 1 6.43168 1 13.132V208.868C1 215.568 7.72775 221 16.0268 221H137.973C146.272 221 153 215.568 153 208.868V13.132C153 6.43168 146.272 1 137.973 1Z" fill="white" stroke="#0B5243" stroke-width="0.75" stroke-miterlimit="10"/>
<path d="M19.4654 1H141.023C149.285 1 156.001 7.70949 156.001 15.9831V24.0943H4.49609V15.9831C4.49609 7.70949 11.2032 1 19.4654 1Z" fill="#0B5243"/>
<path d="M15.9779 1H137.527C145.789 1 152.505 7.70949 152.505 15.9831V24.0943H1V15.9831C1 7.70949 7.70714 1 15.9779 1Z" fill="#CBEDE1" stroke="#0B5243" stroke-width="0.75" stroke-miterlimit="10"/>
<path d="M19.0943 17.8091C21.7179 17.8091 23.8448 15.6815 23.8448 13.0569C23.8448 10.4323 21.7179 8.30469 19.0943 8.30469C16.4706 8.30469 14.3438 10.4323 14.3438 13.0569C14.3438 15.6815 16.4706 17.8091 19.0943 17.8091Z" fill="#FBF9ED" stroke="#0B5243" stroke-width="0.75" stroke-miterlimit="10"/>
<path d="M33.3482 17.8091C35.9718 17.8091 38.0987 15.6815 38.0987 13.0569C38.0987 10.4323 35.9718 8.30469 33.3482 8.30469C30.7245 8.30469 28.5977 10.4323 28.5977 13.0569C28.5977 15.6815 30.7245 17.8091 33.3482 17.8091Z" fill="#FBF9ED" stroke="#0B5243" stroke-width="0.75" stroke-miterlimit="10"/>
<path d="M47.5982 17.8091C50.2218 17.8091 52.3487 15.6815 52.3487 13.0569C52.3487 10.4323 50.2218 8.30469 47.5982 8.30469C44.9745 8.30469 42.8477 10.4323 42.8477 13.0569C42.8477 15.6815 44.9745 17.8091 47.5982 17.8091Z" fill="#FBF9ED" stroke="#0B5243" stroke-width="0.75" stroke-miterlimit="10"/>
<path d="M36.4935 127.672H15.7485C14.0903 127.672 12.7461 129.016 12.7461 130.674C12.7461 132.332 14.0903 133.677 15.7485 133.677H36.4935C38.1517 133.677 39.4959 132.332 39.4959 130.674C39.4959 129.016 38.1517 127.672 36.4935 127.672Z" fill="#0B5243"/>
<path d="M36.4935 172.449H15.7485C14.0903 172.449 12.7461 173.793 12.7461 175.452C12.7461 177.11 14.0903 178.454 15.7485 178.454H36.4935C38.1517 178.454 39.4959 177.11 39.4959 175.452C39.4959 173.793 38.1517 172.449 36.4935 172.449Z" fill="#0B5243"/>
<path d="M36.4935 127.672H15.7485C14.0903 127.672 12.7461 129.016 12.7461 130.674C12.7461 132.332 14.0903 133.677 15.7485 133.677H36.4935C38.1517 133.677 39.4959 132.332 39.4959 130.674C39.4959 129.016 38.1517 127.672 36.4935 127.672Z" fill="#0B5243"/>
<path d="M36.4935 172.449H15.7485C14.0903 172.449 12.7461 173.793 12.7461 175.452C12.7461 177.11 14.0903 178.454 15.7485 178.454H36.4935C38.1517 178.454 39.4959 177.11 39.4959 175.452C39.4959 173.793 38.1517 172.449 36.4935 172.449Z" fill="#0B5243"/>
<path d="M54.9555 93.9023H18.2976C15.2316 93.9023 12.7461 96.275 12.7461 99.2017C12.7461 102.129 15.2316 104.501 18.2976 104.501H54.9555C58.0215 104.501 60.507 102.129 60.507 99.2017C60.507 96.275 58.0215 93.9023 54.9555 93.9023Z" fill="#0B5243"/>
<path d="M76.2805 111.523H14.596C13.5743 111.523 12.7461 112.352 12.7461 113.373C12.7461 114.395 13.5743 115.223 14.596 115.223H76.2805C77.3021 115.223 78.1304 114.395 78.1304 113.373C78.1304 112.352 77.3021 111.523 76.2805 111.523Z" fill="#83BAA0"/>
<path d="M130.524 142.352H24.5783C19.4868 142.352 15.3594 146.523 15.3594 151.668C15.3594 156.813 19.4868 160.984 24.5783 160.984H130.524C135.616 160.984 139.743 156.813 139.743 151.668C139.743 146.523 135.616 142.352 130.524 142.352Z" fill="#0B5243" stroke="#0B5243" stroke-width="0.75" stroke-miterlimit="10"/>
<path d="M130.524 187.133H24.5783C19.4868 187.133 15.3594 191.304 15.3594 196.449C15.3594 201.594 19.4868 205.765 24.5783 205.765H130.524C135.616 205.765 139.743 201.594 139.743 196.449C139.743 191.304 135.616 187.133 130.524 187.133Z" fill="#0B5243" stroke="#0B5243" stroke-width="0.75" stroke-miterlimit="10"/>
<path d="M128.645 142.352H21.965C16.8735 142.352 12.7461 146.523 12.7461 151.668C12.7461 156.813 16.8735 160.984 21.965 160.984H128.645C133.737 160.984 137.864 156.813 137.864 151.668C137.864 146.523 133.737 142.352 128.645 142.352Z" fill="white" stroke="#0B5243" stroke-width="0.75" stroke-miterlimit="10"/>
<path d="M128.645 187.133H21.965C16.8735 187.133 12.7461 191.304 12.7461 196.449C12.7461 201.594 16.8735 205.765 21.965 205.765H128.645C133.737 205.765 137.864 201.594 137.864 196.449C137.864 191.304 133.737 187.133 128.645 187.133Z" fill="white" stroke="#0B5243" stroke-width="0.75" stroke-miterlimit="10"/>
<path d="M71.3745 148.961H23.8543C22.5843 148.961 21.5547 150.111 21.5547 151.53C21.5547 152.949 22.5843 154.099 23.8543 154.099H71.3745C72.6446 154.099 73.6742 152.949 73.6742 151.53C73.6742 150.111 72.6446 148.961 71.3745 148.961Z" fill="#83BAA0"/>
<path d="M86.0561 193.738H23.8543C22.5843 193.738 21.5547 194.889 21.5547 196.308C21.5547 197.727 22.5843 198.877 23.8543 198.877H86.0561C87.3261 198.877 88.3557 197.727 88.3557 196.308C88.3557 194.889 87.3261 193.738 86.0561 193.738Z" fill="#83BAA0"/>
<path d="M139.512 30.7734H14.4386C10.2592 30.7734 6.87109 34.1551 6.87109 38.3266V74.6057C6.87109 78.7772 10.2592 82.1588 14.4386 82.1588H139.512C143.692 82.1588 147.08 78.7772 147.08 74.6057V38.3266C147.08 34.1551 143.692 30.7734 139.512 30.7734Z" fill="#CBEDE1"/>
<path d="M100.101 70.4084C99.3431 63.6591 94.866 51.3281 87.2621 51.3281C80.2747 51.3281 74.9979 63.1337 74.9979 63.1337C74.9979 63.1337 72.6043 57.5422 68.1435 57.5422C62.2924 57.5422 58.9922 66.6673 58.9922 70.4141H100.095C100.098 70.4141 100.101 70.4116 100.101 70.4084Z" fill="#0CC79F"/>
<path d="M71.4709 49.8597C73.9034 49.8597 75.8753 47.8878 75.8753 45.4552C75.8753 43.0227 73.9034 41.0508 71.4709 41.0508C69.0384 41.0508 67.0664 43.0227 67.0664 45.4552C67.0664 47.8878 69.0384 49.8597 71.4709 49.8597Z" fill="#FBF9ED"/>
</svg>
