<svg width="122" height="135" viewBox="0 0 122 135" fill="none" xmlns="http://www.w3.org/2000/svg">
<path d="M66.7268 1C37.9936 0.999973 10.0586 24.0806 10.0586 58.3036C10.0586 87.5938 44.3847 122.973 56.3509 132.321L65.4175 132.321C66.2681 132.321 67.0638 132.074 67.7407 131.559C75.1768 125.9 121.001 89.7498 121.001 58.3036C121 24.0805 95.4599 1.00003 66.7268 1Z" fill="#0B5243" stroke="#0B5243" stroke-width="0.75" stroke-linejoin="round"/>
<path d="M1 58.5935C1 89.3571 46.331 125.88 55.9056 133.251C56.9622 134.064 58.3628 134.05 59.4018 133.214C68.6691 125.759 111.942 89.3065 111.942 58.5935C111.942 24.1973 86.4013 1.00003 57.6682 1C28.935 0.999973 1 24.1973 1 58.5935Z" fill="#0CC79F" stroke="#0B5243" stroke-width="0.75" stroke-linejoin="round"/>
<path d="M56.4734 84.7756C72.1039 84.7756 84.7749 72.1045 84.7749 56.4738C84.7749 40.8431 72.1039 28.1719 56.4734 28.1719C40.8429 28.1719 28.1719 40.8431 28.1719 56.4738C28.1719 72.1045 40.8429 84.7756 56.4734 84.7756Z" fill="#FBF9ED"/>
</svg>
