<svg width="15" height="15" viewBox="0 0 15 15" fill="none" xmlns="http://www.w3.org/2000/svg">
<path d="M13.6797 4.87109C14.0898 5.88281 14.2266 7.08594 14.0898 8.23438C14.0898 8.31641 14.0898 8.39844 14.0625 8.48047C13.543 11.625 10.7812 14.0312 7.5 14.0312C3.80859 14.0312 0.828125 11.0508 0.828125 7.35938V7.33203C0.828125 7.25 0.828125 7.16797 0.828125 7.11328C0.828125 7.08594 0.828125 7.08594 0.828125 7.08594C0.855469 6.92188 0.855469 6.8125 0.882812 6.70312C0.882812 6.64844 0.882812 6.59375 0.910156 6.53906C0.9375 6.21094 1.01953 5.9375 1.01953 5.9375C1.18359 5.19922 1.48438 4.51562 1.89453 3.91406C2.08594 3.64062 2.30469 3.39453 2.52344 3.17578C2.74219 2.95703 2.93359 2.76562 3.17969 2.60156C3.20703 2.57422 3.39844 2.46484 3.39844 2.49219C3.39844 2.71094 3.37109 3.83203 3.64453 4.16016C4.02734 3.72266 4.54688 3.23047 5.23047 2.90234C5.17578 3.17578 5.14844 3.42188 5.14844 3.69531C5.14844 3.99609 5.17578 4.26953 5.25781 4.54297C5.3125 4.59766 5.36719 4.625 5.42188 4.67969C5.53125 4.76172 5.64062 4.87109 5.88672 5.11719C6.35156 5.55469 7.5 6.01953 7.5 6.07422C7.5 6.23828 6.89844 6.8125 6.70703 6.8125C4.82031 6.8125 4.49219 7.96094 4.49219 7.96094C4.57422 8.91797 5.25781 9.71094 6.07812 10.1484C6.10547 10.1758 6.16016 10.1758 6.1875 10.2031C6.24219 10.2305 6.32422 10.2578 6.37891 10.2852C6.65234 10.3672 6.95312 10.4219 7.25391 10.4492C10.5625 10.6133 11.2188 6.48438 8.8125 5.28125C9.44141 5.17188 10.0703 5.41797 10.4258 5.66406C10.1523 5.17188 9.74219 4.76172 9.25 4.46094C9.22266 4.43359 9.19531 4.43359 9.16797 4.40625C9.14062 4.37891 9.08594 4.35156 9.05859 4.32422C9.03125 4.32422 9.00391 4.32422 8.97656 4.29688C8.94922 4.26953 8.89453 4.26953 8.83984 4.24219C8.8125 4.21484 8.78516 4.21484 8.75781 4.21484C8.73047 4.1875 8.67578 4.16016 8.64844 4.16016C8.59375 4.13281 8.53906 4.13281 8.51172 4.10547C8.48438 4.10547 8.45703 4.10547 8.45703 4.07812C8.15625 3.99609 7.82812 3.96875 7.5 3.96875C7.5 3.96875 7.5 3.96875 7.47266 3.96875C7.41797 3.96875 7.36328 3.96875 7.30859 3.96875H7.28125C6.87109 3.99609 6.48828 4.10547 6.13281 4.26953H6.10547C6.10547 4.26953 6.07812 4.29688 6.05078 4.29688C5.99609 4.29688 5.91406 4.24219 5.91406 4.16016C5.88672 4.16016 5.88672 4.13281 5.88672 4.10547C5.88672 4.05078 5.94141 3.99609 5.99609 3.96875C6.37891 3.77734 6.84375 3.64062 7.30859 3.61328C7.47266 2.65625 8.07422 1.125 9.57812 0.277344H9.55078H9.57812V0.25V0.277344C9.60547 0.277344 9.60547 0.277344 9.60547 0.277344C9.63281 0.386719 9.66016 0.46875 9.6875 0.550781C9.71484 0.605469 9.74219 0.632812 9.76953 0.6875C9.82422 0.769531 9.87891 0.851562 9.93359 0.933594C10.9727 2.60156 12.2578 3.33984 12.9961 5.22656C12.9141 4.65234 12.6953 3.91406 12.3398 3.20312C12.7773 3.42188 13.3789 4.1875 13.6797 4.87109Z" fill="#424242"/>
</svg>
