<svg width="176" height="70" viewBox="0 0 176 70" fill="none" xmlns="http://www.w3.org/2000/svg">
<path d="M159.12 1H22.136C12.8135 1 5.2561 8.84845 5.2561 18.53V51.23C5.2561 60.9116 12.8135 68.76 22.136 68.76H159.12C168.443 68.76 176 60.9116 176 51.23V18.53C176 8.84845 168.443 1 159.12 1Z" fill="#0B5243"/>
<path d="M154.864 1H17.8799C8.55738 1 1 8.84845 1 18.53V51.23C1 60.9116 8.55738 68.76 17.8799 68.76H154.864C164.187 68.76 171.744 60.9116 171.744 51.23V18.53C171.744 8.84845 164.187 1 154.864 1Z" fill="white" stroke="#0B5243" stroke-width="0.75" stroke-linecap="round" stroke-linejoin="round"/>
<path d="M96.6654 18.7891H69.4535C67.2784 18.7891 65.5151 20.6202 65.5151 22.8791C65.5151 25.1379 67.2784 26.9691 69.4535 26.9691H96.6654C98.8405 26.9691 100.604 25.1379 100.604 22.8791C100.604 20.6202 98.8405 18.7891 96.6654 18.7891Z" fill="#0B5243"/>
<path d="M108.556 33.7852H66.7683C66.0762 33.7852 65.5151 34.9044 65.5151 36.2852C65.5151 37.6659 66.0762 38.7852 66.7683 38.7852H108.556C109.248 38.7852 109.809 37.6659 109.809 36.2852C109.809 34.9044 109.248 33.7852 108.556 33.7852Z" fill="#83BAA0"/>
<path d="M98.9307 45.7852H66.7645C66.0745 45.7852 65.5151 46.9044 65.5151 48.2852C65.5151 49.6659 66.0745 50.7852 66.7645 50.7852H98.9307C99.6207 50.7852 100.18 49.6659 100.18 48.2852C100.18 46.9044 99.6207 45.7852 98.9307 45.7852Z" fill="#83BAA0"/>
<path d="M34.3839 53.9195C44.5946 53.9195 52.8719 45.3234 52.8719 34.7195C52.8719 24.1157 44.5946 15.5195 34.3839 15.5195C24.1733 15.5195 15.896 24.1157 15.896 34.7195C15.896 45.3234 24.1733 53.9195 34.3839 53.9195Z" fill="#CBEDE1"/>
<path d="M34.3843 53.92C40.3351 53.92 45.6118 50.99 48.9917 46.46C46.334 40.86 40.7973 37 34.3843 37C27.9713 37 22.4345 40.86 19.7769 46.46C23.1567 50.99 28.4335 53.92 34.3843 53.92Z" fill="#088F73"/>
<path d="M34.3843 34.7192C37.7134 34.7192 40.4121 31.9165 40.4121 28.4592C40.4121 25.0019 37.7134 22.1992 34.3843 22.1992C31.0552 22.1992 28.3564 25.0019 28.3564 28.4592C28.3564 31.9165 31.0552 34.7192 34.3843 34.7192Z" fill="#088F73"/>
<path d="M143.759 44.4827C149.415 44.4827 154 39.8975 154 34.2414C154 28.5852 149.415 24 143.759 24C138.103 24 133.517 28.5852 133.517 34.2414C133.517 39.8975 138.103 44.4827 143.759 44.4827Z" fill="#0B5243"/>
<path d="M142.241 44.4827C147.898 44.4827 152.483 39.8975 152.483 34.2414C152.483 28.5852 147.898 24 142.241 24C136.585 24 132 28.5852 132 34.2414C132 39.8975 136.585 44.4827 142.241 44.4827Z" fill="#CBEDE1" stroke="#0B5243" stroke-width="0.604262" stroke-miterlimit="10"/>
<path d="M140.714 26V31.9079H136.173V35.5569H140.714V41.5517H144.383V35.5569H149.828V31.9079H144.383V26H140.714Z" fill="#0B5243" stroke="#0B5243" stroke-width="0.75" stroke-linejoin="round"/>
<path d="M139.956 26V31.9079H134.655V35.5569H139.956V41.5517H143.624V35.5569H149.069V31.9079H143.624V26H139.956Z" fill="#FBF9ED" stroke="#0B5243" stroke-width="0.75" stroke-linejoin="round"/>
</svg>
