<svg width="176" height="120" viewBox="0 0 176 120" fill="none" xmlns="http://www.w3.org/2000/svg">
<path d="M162.464 7.26562H35.8409C28.3649 7.26562 22.3044 12.2369 22.3044 18.3694V108.899C22.3044 115.031 28.3649 120.002 35.8409 120.002H162.464C169.94 120.002 176 115.031 176 108.899V18.3694C176 12.2369 169.94 7.26562 162.464 7.26562Z" fill="#CBEDE1"/>
<path d="M148.741 1H14.563C7.07237 1 1 5.94946 1 12.0549V98.924C1 105.029 7.07237 109.979 14.563 109.979H148.741C156.232 109.979 162.304 105.029 162.304 98.924V12.0549C162.304 5.94946 156.232 1 148.741 1Z" fill="white" stroke="#0B5243" stroke-width="0.75" stroke-miterlimit="10"/>
<path d="M144.196 32.3125H20.6301C16.5121 32.3125 13.1738 35.0043 13.1738 38.3249V85.1738C13.1738 88.4944 16.5121 91.1862 20.6301 91.1862H144.196C148.314 91.1862 151.652 88.4944 151.652 85.1738V38.3249C151.652 35.0043 148.314 32.3125 144.196 32.3125Z" fill="#CBEDE1"/>
<path d="M27.9089 59.3376C29.4172 59.3376 30.64 58.3351 30.64 57.0985C30.64 55.8619 29.4172 54.8594 27.9089 54.8594C26.4005 54.8594 25.1777 55.8619 25.1777 57.0985C25.1777 58.3351 26.4005 59.3376 27.9089 59.3376Z" fill="#83BAA0"/>
<path d="M27.9089 69.8688C29.4172 69.8688 30.64 68.8663 30.64 67.6297C30.64 66.3931 29.4172 65.3906 27.9089 65.3906C26.4005 65.3906 25.1777 66.3931 25.1777 67.6297C25.1777 68.8663 26.4005 69.8688 27.9089 69.8688Z" fill="#83BAA0"/>
<path d="M27.9089 79.9157C29.4172 79.9157 30.64 78.9132 30.64 77.6766C30.64 76.44 29.4172 75.4375 27.9089 75.4375C26.4005 75.4375 25.1777 76.44 25.1777 77.6766C25.1777 78.9132 26.4005 79.9157 27.9089 79.9157Z" fill="#83BAA0"/>
<path d="M50.7735 39.8281H30.3571C27.5906 39.8281 25.3479 41.791 25.3479 44.2123C25.3479 46.6337 27.5906 48.5965 30.3571 48.5965H50.7735C53.54 48.5965 55.7827 46.6337 55.7827 44.2123C55.7827 41.791 53.54 39.8281 50.7735 39.8281Z" fill="#0B5243"/>
<path d="M65.8371 12.2734H18.3366C15.4853 12.2734 13.1738 14.2363 13.1738 16.6576C13.1738 19.079 15.4853 21.0419 18.3366 21.0419H65.8371C68.6884 21.0419 70.9999 19.079 70.9999 16.6576C70.9999 14.2363 68.6884 12.2734 65.8371 12.2734Z" fill="#0B5243"/>
<path d="M138.258 54.8594H37.2202C35.7059 54.8594 34.4783 55.981 34.4783 57.3646C34.4783 58.7483 35.7059 59.8699 37.2202 59.8699H138.258C139.772 59.8699 141 58.7483 141 57.3646C141 55.981 139.772 54.8594 138.258 54.8594Z" fill="#83BAA0"/>
<path d="M100.258 64.8828H37.1772C35.6866 64.8828 34.4783 66.0045 34.4783 67.3881C34.4783 68.7717 35.6866 69.8933 37.1772 69.8933H100.258C101.748 69.8933 102.957 68.7717 102.957 67.3881C102.957 66.0045 101.748 64.8828 100.258 64.8828Z" fill="#83BAA0"/>
<path d="M45.1304 59.8699C46.8113 59.8699 48.1739 58.7483 48.1739 57.3646C48.1739 55.981 46.8113 54.8594 45.1304 54.8594C43.4495 54.8594 42.0869 55.981 42.0869 57.3646C42.0869 58.7483 43.4495 59.8699 45.1304 59.8699Z" fill="#83BAA0"/>
<path d="M45.1304 69.8933C46.8113 69.8933 48.1739 68.7717 48.1739 67.3881C48.1739 66.0045 46.8113 64.8828 45.1304 64.8828C43.4495 64.8828 42.0869 66.0045 42.0869 67.3881C42.0869 68.7717 43.4495 69.8933 45.1304 69.8933Z" fill="#83BAA0"/>
<path d="M100.258 74.9062H37.1772C35.6866 74.9062 34.4783 76.0279 34.4783 77.4115C34.4783 78.7951 35.6866 79.9168 37.1772 79.9168H100.258C101.748 79.9168 102.957 78.7951 102.957 77.4115C102.957 76.0279 101.748 74.9062 100.258 74.9062Z" fill="#83BAA0"/>
<path d="M45.1304 79.9168C46.8113 79.9168 48.1739 78.7951 48.1739 77.4115C48.1739 76.0279 46.8113 74.9062 45.1304 74.9062C43.4495 74.9062 42.0869 76.0279 42.0869 77.4115C42.0869 78.7951 43.4495 79.9168 45.1304 79.9168Z" fill="#83BAA0"/>
</svg>
